<?xml version="1.0" encoding="UTF-8" standalone="no"?>
<!-- Created with Inkscape (http://www.inkscape.org/) -->

<svg
   xmlns:dc="http://purl.org/dc/elements/1.1/"
   xmlns:cc="http://creativecommons.org/ns#"
   xmlns:rdf="http://www.w3.org/1999/02/22-rdf-syntax-ns#"
   xmlns:svg="http://www.w3.org/2000/svg"
   xmlns="http://www.w3.org/2000/svg"
   xmlns:sodipodi="http://sodipodi.sourceforge.net/DTD/sodipodi-0.dtd"
   xmlns:inkscape="http://www.inkscape.org/namespaces/inkscape"
   width="141.24461mm"
   height="130.02589mm"
   viewBox="0 0 500.47306 460.72167"
   id="svg2"
   version="1.1"
   inkscape:version="0.91 r13725"
   sodipodi:docname="islamprayer.svg"
   inkscape:export-filename="C:\Users\Z\Pictures\cooking.png"
   inkscape:export-xdpi="90"
   inkscape:export-ydpi="90">
  <defs
     id="defs4">
    <clipPath
       clipPathUnits="userSpaceOnUse"
       id="clipPath15297">
      <path
         style="fill:none;fill-rule:evenodd;stroke:#000000;stroke-width:1px;stroke-linecap:butt;stroke-linejoin:miter;stroke-opacity:1"
         d="m 572.20152,-430.62932 c 34.84568,-42.32767 121.72477,-80.27159 119.18909,-75.64769 27.52019,-22.85427 55.2821,-45.58768 73.66854,-73.00883 -3.50907,-26.54198 16.02738,-20.82024 27.62633,-26.21099 26.11978,-35.36707 45.26539,-48.75315 69.79211,-93.96399 8.61526,-0.28574 17.16544,-18.38502 27.4322,-40.14012 l 1.93067,-22.10245 c 2.7519,-14.7346 25.31358,-29.4692 52.72725,-44.20381 -9.49998,-19.80816 -29.9659,-14.69372 -23.15534,-71.57128 -16.09879,-19.05722 -13.39713,-30.1462 -26.37042,-83.91036 2.29031,-14.41749 0.83618,-15.15124 4.74417,-29.56874 0,0 -13.57342,-83.57082 27.84613,-86.79172 60.24843,-43.4398 104.16295,-49.5449 153.87175,-68.8942 57.4073,-7.0784 72.5141,24.6187 91.4809,52.7774 l -8.9213,22.8077 10.9824,27.1617 -5.1893,4.77 15.3362,54.52917 c 9.5469,11.87893 21.7109,30.91618 29.6054,62.62256 l 19.8075,-3.4263 24.1614,7.1475 16.0756,0.92762 c 56.9044,27.73724 137.1643,45.25647 169.7067,83.65207 20.4618,28.79728 33.9729,72.88596 46.2374,119.71732 4.0552,22.67075 0.4943,47.24554 16.4552,66.93985 10.5555,15.58368 21.111,24.31142 31.6665,63.33296 l 3.3934,153.8275 -609.41031,-1.48326 17.18393,-60.56148 c -28.89481,15.55336 -41.72149,36.98313 -60.54315,53.31105 -9.1987,-1.75941 -18.3974,-8.59863 -27.59609,-18.64134 l -12.7233,-4.47894 -40.09078,30.3524 z"
         id="path15299"
         inkscape:connector-curvature="0"
         sodipodi:nodetypes="cccccccccccccccccccccccccccccccccc" />
    </clipPath>
  </defs>
  <sodipodi:namedview
     id="base"
     pagecolor="#ffffff"
     bordercolor="#666666"
     borderopacity="1.0"
     inkscape:pageopacity="0.0"
     inkscape:pageshadow="2"
     inkscape:zoom="0.61522729"
     inkscape:cx="111.62167"
     inkscape:cy="157.33751"
     inkscape:document-units="px"
     inkscape:current-layer="layer1"
     showgrid="false"
     fit-margin-top="0"
     fit-margin-left="0"
     fit-margin-right="0.4"
     fit-margin-bottom="0"
     inkscape:window-width="1366"
     inkscape:window-height="745"
     inkscape:window-x="-8"
     inkscape:window-y="-8"
     inkscape:window-maximized="1" />
  <metadata
     id="metadata7">
    <rdf:RDF>
      <cc:Work
         rdf:about="">
        <dc:format>image/svg+xml</dc:format>
        <dc:type
           rdf:resource="http://purl.org/dc/dcmitype/StillImage" />
        <dc:title></dc:title>
      </cc:Work>
    </rdf:RDF>
  </metadata>
  <g
     inkscape:label="Layer 1"
     inkscape:groupmode="layer"
     id="layer1"
     transform="translate(-303.14929,1275.6487)">
    <g
       id="g25774">
      <path
         inkscape:connector-curvature="0"
         id="path25756"
         d="m 637.413,-1274.8452 c -13.87322,0.066 -38.31186,1.4288 -51.76368,2.9805 -4.4,0.5076 -15.26202,1.3583 -24.13672,1.8906 -8.8746,0.5323 -19.2246,1.7038 -23,2.6035 -8.4297,2.0085 -23.79837,9.4002 -36.05079,17.3379 l -9.18945,5.9532 -5.13867,10.2793 c -6.69524,13.3946 -8.08362,15.23 -13.42383,17.7402 -2.45826,1.1555 -8.04621,4.988 -12.41797,8.5176 -4.37176,3.5295 -10.12891,7.6494 -12.79492,9.1562 -9.96964,5.6351 -13.65019,8.4118 -12.01758,9.207 l -15.06837,8.4747 c 0.0245,-0.2186 -0.0392,-0.3986 -0.1875,-0.5469 -0.35209,-0.3521 -0.84775,-0.499 -1.48633,-0.4395 -2.76718,0.2579 -8.21212,4.371 -16.21875,12.2637 -5.53517,5.4565 -10.1453,11.0249 -11.71093,14.1426 -1.42032,2.8282 -6.11325,9.3895 -10.42774,14.5801 -8.87041,10.6718 -19.89273,26.1826 -23.11523,32.5293 -1.18724,2.3383 -2.84755,7.0633 -3.69141,10.5 -2.06318,8.4025 -3.29781,11.5161 -6.4414,16.248 -1.46158,2.2 -3.72207,6.1612 -5.02345,8.8028 -1.30137,2.6417 -5.50088,8.9309 -9.33008,13.9746 -3.8292,5.0436 -9.13616,12.5014 -11.79492,16.5742 -5.65029,8.6554 -5.91843,11.0023 -2.90235,25.416 1.06255,5.0779 2.45574,12.6074 3.09571,16.73245 3.26502,21.04515 5.5905,29.39325 11.36328,40.78525 1.45333,2.86802 3.08427,5.21484 3.625,5.21484 0.7396,0 1.0536,-0.18101 0.75,-1.21093 l 4.64258,5.53515 c -1.07441,2.81167 -1.96251,5.67722 -2.61719,8.57031 -4.72937,20.89934 -4.99014,22.68873 -4.54883,31.10547 0.33604,6.40904 1.02319,9.60865 3.6582,16.18164 l -4.65429,1.88283 c -5.98306,0.64517 -19.64967,6.30661 -22.17188,9.3457 -1.94825,2.3475 -0.51241,6.12942 2.9668,7.81445 l 3.07031,1.48633 -2.80469,1.07813 c -1.5435,0.59266 -3.93164,1.38414 -5.30664,1.75781 -4.34877,1.18181 -8,5.42362 -8,9.29492 0,4.92188 6.58063,16.55052 8.83985,15.62109 0.91324,-0.37571 3.58262,-0.91779 5.93359,-1.20508 4.72386,-0.57722 8.22656,1.50814 8.22656,4.89844 0,1.01475 0.46716,1.84375 1.03907,1.84375 2.2389,0 8.62505,-4.0184 11.79101,-7.41992 3.71744,-3.99405 5.67109,-4.3183 11.84376,-1.96094 4.83172,1.84526 10.75443,1.22646 12.15235,-1.27148 0.74149,-1.32498 1.25288,-1.37596 3.23632,-0.31445 1.29547,0.69331 5.7488,2.5354 9.89649,4.09375 l 7.54101,2.83398 -9.25,-0.62305 c -5.0875,-0.34306 -9.25,-0.31286 -9.25,0.0684 0,0.38117 1.4625,2.15944 3.25,3.95117 3.41115,3.41924 3.06231,3.32885 25.75,6.65821 3.575,0.52462 9.425,1.39425 13,1.93164 8.97191,1.34867 36.13356,2.48743 39.45314,1.6543 2.24789,-0.56419 2.51141,-0.93802 1.51172,-2.14258 -1.04171,-1.25518 -0.21616,-1.45899 5.91211,-1.45899 4.08162,0 7.12304,0.42693 7.12304,1 0,0.55 -0.9,1 -2,1 -2.407,0 -2.62138,1.55411 -0.38672,2.80469 1.29263,0.72339 1.39211,1.31747 0.5,2.98438 -1.58541,2.96235 -1.43235,3.61841 1.52344,6.57421 3.82986,3.82985 7.59325,3.51178 11.07031,-0.93554 2.64001,-3.3767 8.84091,-7.42774 11.36914,-7.42774 0.63591,0 -0.47193,1.80233 -2.46093,4.00391 -3.39907,3.76237 -4.47562,6.80369 -2.94922,8.33008 1.4843,1.48431 5.79213,0.46116 14.58203,-3.46485 5.08825,-2.27267 9.81445,-4.57837 10.50195,-5.12304 2.03263,-1.61036 1.43299,0.14843 -1.25,3.66601 -3.79272,4.97251 -3.34268,5.58789 4.08789,5.58789 l 6.58985,0 7.00782,-6.39648 c 3.8545,-3.51787 10.00281,-7.94283 13.66211,-9.83399 12.0975,-6.25221 18.01771,-10.58256 20.13281,-14.72851 3.0517,-5.98168 5.24371,-7.04102 14.58398,-7.04102 4.5982,0 10.24705,0.67777 13.02735,1.5625 2.8556,0.90869 13.61488,2.16187 25.72266,2.9961 11.4477,0.78874 23.37273,1.89707 26.5,2.46289 26.0765,4.71788 52.97614,2.74632 75.01564,-5.49805 6.6501,-2.48765 12.60693,-4.52344 13.23633,-4.52344 1.8144,0 27.08969,-8.8487 30.68359,-10.74219 3.5748,-1.88337 4.33097,-4.25781 1.35547,-4.25781 -1.0425,0 -5.17825,1.3966 -9.18945,3.10352 -4.0112,1.70691 -11.59462,4.42998 -16.85352,6.05078 -5.2589,1.62079 -13.6125,4.32064 -18.5625,6 -22.5061,7.63556 -32.41809,8.68358 -66.58009,7.04101 -30.64657,-1.47351 -37.45305,-2.84038 -42.84375,-8.60351 -3.25751,-3.48255 -1.69139,-3.27308 8.66211,1.1582 8.5382,3.6543 9.06792,3.74852 20.76172,3.69922 10.2603,-0.0433 13.8123,-0.52643 24.5,-3.33594 14.1344,-3.71551 20.76663,-3.75644 33.48634,-0.20312 3.8421,1.07331 7.21595,1.7215 7.49805,1.43945 1.3653,-1.36529 -5.23857,-4.16589 -18.93165,-8.0293 -2.1545,-0.60787 5.37596,-4.95749 12.44727,-7.18945 3.3,-1.04159 9.15,-2.20373 13,-2.58203 6.2748,-0.61655 9.6527,-0.29527 22.75,2.16211 4.0461,0.75913 3.4082,-1.38884 -1,-3.36719 -2.6275,-1.17924 -6.65719,-1.70727 -13.46289,-1.76367 -8.1466,-0.0675 -9.49679,-0.29699 -8.36719,-1.42773 1.4368,-1.43834 2.51538,-1.57466 21.08008,-2.67188 10.8333,-0.64026 12.5348,-0.50438 17.5,1.4043 6.6634,2.56143 8.78298,2.76371 7.04688,0.67187 -1.2825,-1.54535 -11.17656,-4.99387 -17.22266,-6.0039 -3.2302,-0.53961 -13.56332,0.54945 -19.32422,2.03711 -1.7862,0.46127 -1.74656,0.29638 0.36914,-1.54297 6.2897,-5.46794 21.95666,-6.43379 33.63086,-2.07227 3.3,1.23288 7.575,2.82868 9.5,3.54492 1.925,0.71625 3.67678,1.12849 3.89258,0.91602 1.8336,-1.80466 -12.62952,-8.89573 -22.07422,-10.82227 -3.7679,-0.76859 -5.70245,-1.55345 -4.81055,-1.95313 0.8205,-0.36771 0.14219,-0.42015 -1.50781,-0.11524 -1.65,0.3049 -5.21221,0.96681 -7.91601,1.47072 -2.7038,0.50391 -5.38052,1.38245 -5.94922,1.95117 -0.5688,0.56871 -2.40649,0.98177 -4.08399,0.91797 -1.9064,-0.0725 -2.30088,-0.2708 -1.05078,-0.52735 2.6916,-0.55234 10.5,-4.6423 10.5,-5.50001 0,-0.37679 -7.9875,-0.5362 -17.75,-0.35351 -12.6352,0.23644 -15.5888,0.10535 -10.25,-0.45508 4.125,-0.43301 11.3813,-0.84607 16.125,-0.91797 9.9206,-0.15033 14.875,-0.94519 14.875,-2.38867 0,-0.66012 -5.4465,-0.81338 -15.75,-0.44141 -9.5909,0.34625 -14.1858,0.23665 -11.75,-0.27929 2.2,-0.46601 12.55,-1.12552 23,-1.4668 23.9915,-0.78353 31.5,-1.44233 31.5,-2.75977 0,-0.71013 -5.8522,-0.85905 -18.25,-0.46484 -10.0375,0.31916 -21.625,0.25428 -25.75,-0.14453 -7.0335,-0.68001 -6.48305,-0.77086 8.85742,-1.46289 8.9968,-0.40587 16.76798,-0.99006 17.26758,-1.29883 2.6444,-1.63437 -1.59519,-2.43551 -13.43359,-2.53711 l -13.19141,-0.11328 12,-1.32422 c 6.6,-0.72879 18.6375,-1.64467 26.75,-2.03515 8.1125,-0.39051 14.75,-1.05769 14.75,-1.48243 0,-1.73353 -7.30771,-2.09775 -28.34961,-1.41406 -24.05877,0.78172 -28.87147,-0.26098 -7.4375,-1.61133 15.6456,-0.98568 19.78711,-1.62204 19.78711,-3.04101 0,-0.70513 -4.1494,-0.84349 -12.75,-0.42188 -7.0125,0.34376 -15,0.23814 -17.75,-0.23633 l -5,-0.86328 7,-0.84179 c 3.85,-0.46249 17.91165,-0.87543 31.24805,-0.91993 17.2457,-0.0575 24.24901,-0.40691 24.25001,-1.20703 0.004,-2.08033 -6.37146,-2.43775 -31.99806,-1.79687 -15.362,0.38418 -26.47015,0.25952 -27.93945,-0.3125 -1.8586,-0.72362 0.4015,-1.11028 9.5,-1.625 17.1393,-0.96961 23.43945,-1.75445 23.43945,-2.92383 0,-1.01615 -23.611,-0.39056 -32.5,0.86133 -3.5813,0.50438 -3.81742,0.41362 -2.24805,-0.86914 0.9641,-0.78801 5.18245,-1.74331 9.37305,-2.12305 13.3929,-1.21363 38.5481,-2.52229 49.12501,-2.55469 6.0127,-0.0184 10.25,-0.43629 10.25,-1.01172 0,-2.0498 -5.82329,-2.15685 -38.1797,-0.70117 -18.32667,0.8245 -33.49518,1.32846 -33.70898,1.11914 -1.1389,-1.11519 6.24846,-2.47038 16.16016,-2.96289 15.84887,-0.78753 21.72851,-1.47666 21.72851,-2.54687 0,-1.2439 -10.66454,-1.1737 -22.83594,0.15039 -5.45267,0.59322 -11.20766,0.90544 -12.78906,0.69336 l -2.875,-0.38477 3,-1.26367 c 1.65,-0.69499 7.17113,-1.61652 12.26953,-2.04688 5.0984,-0.43036 9.54978,-1.06343 9.89258,-1.40625 1.5584,-1.55839 -3.92657,-1.9267 -14.57617,-0.98046 -6.3718,0.56612 -11.78123,0.859 -12.01953,0.65234 -1.7802,-1.54362 4.2259,-2.67375 19.7832,-3.72461 9.9487,-0.67201 18.38138,-1.51421 18.73828,-1.87109 1.5773,-1.57734 -5.9489,-1.9247 -21.4082,-0.98829 -9.186,0.55644 -17.09246,0.62901 -17.59766,0.16016 -1.4633,-1.35819 0.6629,-1.68152 22.3711,-3.38672 19.53317,-1.53434 22.01746,-1.89466 20.88086,-3.03125 -0.6938,-0.69373 -40.92839,1.21231 -43.08399,2.04102 -1.8849,0.72466 -2.45656,-0.98642 -0.69336,-2.07617 0.8666,-0.5356 33.07196,-3.36331 39.19336,-3.44141 0.9625,-0.0123 1.75,-0.51846 1.75,-1.125 0,-0.78456 -5.8437,-0.95405 -20.25,-0.58398 -11.1375,0.2861 -16.77785,0.19979 -12.53515,-0.19336 7.38987,-0.68477 11.75097,-2.08595 6.70117,-2.15235 -2.3405,-0.0308 -2.35461,-0.0781 -0.47461,-1.50003 1.0676,-0.8075 2.72966,-1.4687 3.69336,-1.4687 1.8463,0 5.10252,-3.8057 4.32812,-5.0586 -0.2494,-0.4035 -5.47433,-0.7748 -11.61133,-0.8242 -6.13687,-0.049 -11.38947,-0.3211 -11.67187,-0.6036 -0.2824,-0.2824 2.4314,-0.5136 6.0293,-0.5136 8.2421,0 13.46669,-0.9551 11.62109,-2.125 -0.7319,-0.464 -3.35508,-0.9097 -5.83008,-0.9903 -3.6904,-0.1202 -2.9708,-0.3788 4,-1.4394 4.675,-0.7113 8.6125,-1.3277 8.75,-1.3692 0.1375,-0.042 0.25,-0.5261 0.25,-1.07615 0,-0.5921 -3.64743,-1 -8.9414,-1 -4.9176,0 -9.18016,-0.3862 -9.47266,-0.8594 -0.5805,-0.9392 8.77653,-2.1406 16.67773,-2.1406 4.7827,0 4.95158,0.095 4.48438,2.539 -0.2848,1.4898 -0.0605,2.39855 0.54297,2.19735 1.5425,-0.51425 4.79805,-7.04765 3.93945,-7.90635 -0.4104,-0.4104 -3.66778,-0.3245 -7.23828,0.1915 -8.5335,1.2331 -15.72249,1.2239 -16.49219,-0.021 -0.3399,-0.55 0.19651,-1.0029 1.19141,-1.0079 2.8708,-0.013 19.50879,-2.005 22.02539,-2.6367 2.2399,-0.5623 2.2832,-0.8319 2.2832,-14.48445 l 0,-13.9101 4.5,-8.9609 c 5.0277,-10.011 5.02348,-10 3.15821,-10 -2.4737,0 -8.59706,13.0407 -11.03516,23.5 -1.0277,4.4093 -1.57653,5.1407 -4.64453,6.1933 -5.3293,1.8283 -11.97852,1.669 -11.97852,-0.2871 0,-0.8765 -0.91851,-1.8334 -2.04101,-2.1269 -3.8686,-1.0117 -1.27528,-2.7865 7.94922,-5.4415 10.62627,-3.0584 12.81509,-4.4015 5.59179,-3.4316 -2.75,0.3692 -7.25,0.8661 -10,1.1055 l -5,0.4355 5,-1.5195 c 8.7061,-2.6471 13.5,-4.5662 13.5,-5.4043 0,-0.4466 -1.6875,-0.3823 -3.75,0.1445 -6.7066,1.7131 -13.61909,2.2368 -12.83789,0.9727 0.388,-0.6277 1.35389,-1.1406 2.14649,-1.1406 0.7925,0 1.4414,-0.8458 1.4414,-1.879 0,-1.9497 1.378,-2.6714 10.75,-5.6269 2.8875,-0.9106 5.25,-2.0684 5.25,-2.5742 0,-1.241 -0.94371,-1.1698 -7.66211,0.5801 -3.1674,0.825 -8.25183,1.4468 -11.29883,1.3808 l -5.53906,-0.1211 4.5,-0.9629 c 7.0459,-1.5095 14.30905,-4.1857 14.71485,-5.4218 0.2585,-0.7875 -1.48906,-0.6966 -5.81446,0.3027 -8.5117,1.9664 -13.53045,1.334 -5.47265,-0.6895 7.2941,-1.8317 9.15851,-4.5898 2.44921,-3.623 -2.40767,0.347 -4.98817,0.238 -5.73437,-0.2422 -1.6146,-1.0391 -0.76558,-1.6461 3.60742,-2.584 3.7034,-0.7943 4.3841,-2.5317 1,-2.5527 -1.2375,-0.01 -3.29998,-0.2949 -4.58398,-0.6387 -3.1238,-0.8364 -0.85742,-2.311 3.58398,-2.332 3.4155,-0.016 4.35747,-1.3761 1.66797,-2.4082 -0.8699,-0.3338 -3.20621,-0.6074 -5.19141,-0.6074 -3.3883,0 -3.49016,-0.09 -1.66796,-1.4688 1.0676,-0.8075 2.63778,-1.483 3.48828,-1.5 0.8505,-0.017 4.0005,-1.5949 7,-3.5059 9.899,-6.3064 19.42865,-3.9009 21.97265,5.5469 1.3628,5.0611 2.98047,5.0472 2.98047,-0.025 0,-5.6179 -1.8267,-8.9172 -6.1582,-11.1269 -5.6701,-2.8927 -10.77673,-2.4615 -18.70703,1.58 -8.4482,4.3054 -11.13477,4.5248 -11.13477,0.9063 0,-1.4271 1.36415,-10.5396 3.03125,-20.25 l 3.03125,-17.6563 4.85352,-5 c 5.4908,-5.6557 6.53844,-7.4364 7.49804,-12.752 0.6996,-3.8755 -1.87071,-11.6764 -4.35351,-13.2109 -0.8352,-0.5162 -0.97403,-3.3597 -0.48633,-10.0039 0.6088,-8.2945 0.40762,-10.1746 -1.89648,-17.6582 -2.53,-8.2174 -4.08556,-16.5397 -7.14453,-38.2402 -1.1602,-8.2309 -2.47095,-12.9603 -5.40235,-19.5 -2.1286,-4.7485 -4.21442,-9.7598 -4.63672,-11.1348 -2.9474,-9.5982 -19.69862,-22.9934 -46.26173,-36.9941 -4.1127,-2.1676 -6.30322,-2.5423 -16.73242,-2.8692 -1.4878,-0.047 -3.25443,-0.064 -5.23633,-0.055 z m 89.98634,212.9512 c -1.0473,0.044 -4.25,2.5524 -4.25,3.3282 0,0.8054 1.37067,0.819 3.41797,0.033 1.5705,-0.6027 2.26853,-3.4224 0.83203,-3.3614 z m 17.75,8.9668 c -0.55,0 -0.99437,1.2375 -0.98437,2.75 0.0119,2.1429 0.22907,2.4188 0.98437,1.25 1.2645,-1.9566 1.2645,-4 0,-4 z m -13.5,5 c -1.5464,0 -1.98753,1.1805 -0.86133,2.3067 0.799,0.7989 2.36133,-0.1043 2.36133,-1.3653 0,-0.5175 -0.675,-0.9414 -1.5,-0.9414 z m -8.5664,14 c -1.7098,0 -4.9336,1.9835 -4.9336,3.0352 0,1.2341 0.36003,1.2141 3.45313,-0.1953 2.5743,-1.1729 3.44287,-2.8399 1.48047,-2.8399 z m 5.25,15.1328 c -0.71783,0 -1.6442,0.071 -2.76758,0.2246 -5.3461,0.7327 -6.69244,1.387 -5.80664,2.8204 0.3845,0.6221 2.25672,0.7804 4.66992,0.3945 4.6383,-0.7417 5.7207,-1.2661 5.7207,-2.7676 0,-0.4399 -0.62003,-0.6647 -1.8164,-0.6719 z m 41.50782,3.8809 c -7.79981,0.015 -11.69142,0.7153 -11.69142,2.1035 0,0.9858 15.94052,1.2277 18.41212,0.2793 3.3275,-1.2769 0.1735,-2.3958 -6.7207,-2.3828 z m 16.1914,6.5937 c -1.01093,0 -2.12949,0.058 -3.29296,0.1934 -2.6296,0.307 -3.38988,0.7119 -2.45118,1.3066 1.7916,1.1379 9.59052,1.143 10.29102,0.01 0.55597,-0.8996 -1.51407,-1.4955 -4.54688,-1.5078 l 0,0 z m -41.32422,3.3926 c -1.8926,0 -3.7186,0.45 -4.0586,1 -0.3732,0.6039 0.99011,1 3.44141,1 2.2325,0 4.05859,-0.45 4.05859,-1 0,-0.55 -1.5489,-1 -3.4414,-1 z m 48.68165,7.04305 c -1.50319,0 -3.25299,0.319 -4.24024,0.957 -1.0985,0.7099 -0.3624,0.9732 2.75,0.9844 2.3375,0.01 4.25,-0.4344 4.25,-0.9844 0,-0.638 -1.25658,-0.957 -2.75976,-0.957 z m -32.78908,3.3906 c -0.21018,-0.023 -0.50197,0.034 -0.86718,0.1738 -0.871,0.3343 -1.58399,1.047 -1.58399,1.584 0,1.3144 2.27319,0.491 2.77149,-1.0039 0.15225,-0.4567 0.03,-0.7154 -0.32032,-0.7539 z m -14.10351,0.6094 c -1.54641,-0.039 -3.53417,0.1677 -5.29492,0.6387 -2.2658,0.606 -2.3027,0.7105 -0.5,1.416 2.4828,0.9716 3.43146,1.0147 6.19726,0.2734 1.2375,-0.3316 2.25,-1.0005 2.25,-1.4863 0,-0.5157 -1.10593,-0.8026 -2.65234,-0.8418 z m 3.99219,6.1934 c -1.12456,-0.014 -2.47894,-10e-5 -4.07422,0.045 -6.9363,0.1955 -10.6425,0.7207 -11.5,1.6289 -1.0548,1.1171 0.27439,1.2293 7.99609,0.6777 11.98951,-0.8564 15.45,-2.2561 7.57813,-2.3516 z m 48.36915,1.8242 c -2.07354,-0.088 -3.86573,0.8773 -3.21289,1.93365 0.9323,1.5084 6.7617,1.2808 6.2539,-0.2442 -0.2289,-0.68755 -1.19358,-1.39995 -2.14258,-1.58405 -0.30136,-0.058 -0.60221,-0.093 -0.89843,-0.1054 z m -38.24025,3.05665 c -1.75432,0.033 -4.46875,1.0039 -4.46875,1.9024 0,0.5395 0.7875,0.9728 1.75,0.9648 2.269,-0.02 4.88648,-1.6799 4.01758,-2.5488 -0.23495,-0.235 -0.71405,-0.3293 -1.29883,-0.3184 z m -17.97656,0.9043 c -2.2881,0.01 -4.5765,0.3073 -4.93945,0.8945 -0.3109,0.5031 5e-4,1.1414 0.6914,1.42 3.0851,1.2438 10.16005,0.1275 9.18555,-1.4493 -0.36165,-0.5851 -2.6494,-0.8717 -4.9375,-0.8652 z m 54.88087,3.0781 c -0.77608,0.033 -1.54313,0.1795 -2.19727,0.459 -1.3981,0.5975 -1.25968,0.8447 0.82422,1.4805 3.9335,1.2 6.20641,1.0851 5.75391,-0.2891 -0.30975,-0.9405 -1.89358,-1.5575 -3.60547,-1.6465 -0.25678,-0.013 -0.5167,-0.015 -0.77539,0 z m -43.89845,2.0938 c -1.9113,-0.013 -4.47461,0.8597 -4.47461,1.8262 0,1.2048 3.99927,1.266 5.85547,0.09 0.9979,-0.6323 1.04916,-1.0492 0.19336,-1.5782 -0.37287,-0.2304 -0.93712,-0.3335 -1.57422,-0.3379 z m -19.47851,0.3965 c -2.57123,0.001 -5.14269,0.2247 -5.58594,0.6679 -0.3358,0.3359 -0.28331,1.1391 0.11719,1.7872 l 0,0 c 0.4985,0.8065 2.33873,0.9634 5.83203,0.5 5.4889,-0.7282 6.39495,-1.1267 5.22265,-2.2969 -0.44355,-0.4429 -3.01471,-0.6616 -5.58593,-0.6602 z m 52.87891,4.4101 c -4.5347,0 -5.82648,0.7165 -4.20898,2.334 0.9622,0.96224 12.58756,0.7924 14.16406,-0.207 1.7026,-1.0793 -3.19768,-2.127 -9.95508,-2.127 z m -51.21095,1.0196 c -4.82795,-0.042 -9.97646,0.1638 -11.25976,0.6562 -1.6319,0.6263 -1.62013,0.7292 0.16797,1.42971 2.4887,0.97494 5.38833,1.02702 13.67773,0.24414 3.7125,-0.35063 6.75,-1.02365 6.75,-1.49415 0,-0.5037 -4.50799,-0.7936 -9.33594,-0.8359 z m 15.83594,4.98044 c -1.925,0 -3.5,0.45 -3.5,1 0,0.55 1.575,1 3.5,1 1.925,0 3.5,-0.45 3.5,-1 0,-0.55 -1.575,-1 -3.5,-1 z m 29.05861,9 c -1.8926,0 -3.7186,0.45 -4.0586,1 -0.3732,0.60393 0.99011,1 3.44141,1 2.2325,0 4.05859,-0.45 4.05859,-1 0,-0.55 -1.5489,-1 -3.4414,-1 z m -25.30861,1.01367 c -3.7519,0.0186 -7.25,1.03385 -7.25,2.10352 0,1.00115 6.01457,1.19958 8.41797,0.27734 2.5283,-0.97022 1.82953,-2.39576 -1.16797,-2.38086 z m 13.69142,3.98633 c -1.6175,0 -2.94141,0.45 -2.94141,1 0,0.55 1.6011,1 3.5586,1 2.118,0 3.3092,-0.40488 2.9414,-1 -0.3399,-0.55 -1.94099,-1 -3.55859,-1 z m 8.05859,0 c -1.1,0 -2,0.45 -2,1 0,0.55 0.9,1 2,1 1.1,0 2,-0.45 2,-1 0,-0.55 -0.9,-1 -2,-1 z m -40.08399,3.12305 c -0.3474,-0.0143 -0.74257,0.0509 -1.10352,0.19531 -0.7977,0.31922 -0.56138,0.55552 0.60352,0.60352 1.0542,0.0434 1.6448,-0.1931 1.3125,-0.52539 -0.16615,-0.16613 -0.4651,-0.25914 -0.8125,-0.27344 z m 9.08398,0.008 c -0.45312,0 -0.90625,0.0683 -1.25,0.20703 -0.6875,0.27741 -0.125,0.50391 1.25,0.50391 1.375,0 1.9375,-0.2265 1.25,-0.50391 -0.34375,-0.1387 -0.79687,-0.20703 -1.25,-0.20703 z m 19.52736,2.99219 c -2.31443,0.028 -4.50401,0.17756 -6.18361,0.47266 l -4.84375,0.85156 6.5,0.60351 c 12.11761,1.12599 19.5043,1.05502 18.2715,-0.17773 -0.95588,-0.95593 -6.16946,-1.62694 -11.40235,-1.73828 -0.78493,-0.0167 -1.57032,-0.0211 -2.34179,-0.0117 z m -8.32423,23.97852 c -1.27642,0 -2.20313,0.29925 -2.20313,0.89843 0,0.55 1.9125,0.96839 4.25,0.92969 3.2916,-0.0544 3.799,-0.26408 2.25,-0.92969 -1.39435,-0.59918 -3.02046,-0.89844 -4.29687,-0.89843 z m -9.76368,11.91601 c -5.26642,0.009 -10.43945,0.31748 -10.43945,0.91602 0,0.51347 1.2375,1.12243 2.75,1.35156 4.5375,0.68737 15.97321,0.7594 17.66211,0.11133 0.8668,-0.33264 1.32774,-1.00764 1.02344,-1.5 -0.3695,-0.59786 -5.72965,-0.88834 -10.9961,-0.87891 z m -8.99804,8.98242 c -1.3425,0 -2.44141,0.45 -2.44141,1 0,0.55 1.3761,1 3.0586,1 1.7847,0 2.802,-0.41658 2.4414,-1 -0.3399,-0.55 -1.71599,-1 -3.05859,-1 z m -3.44141,6 c -1.65,0 -3,0.45 -3,1 0,0.55 1.35,1.00001 3,1.00001 1.65,0 3,-0.45001 3,-1.00001 0,-0.55 -1.35,-1 -3,-1 z m -0.5,27.00001 c -0.825,0 -1.5,0.45 -1.5,1 0,0.55 0.675,1 1.5,1 0.825,0 1.5,-0.45 1.5,-1 0,-0.55 -0.675,-1 -1.5,-1 z m -40.84961,1.19336 c -6.69851,-0.009 -12.81939,0.72506 -12.19922,1.72852 0.263,0.42559 6.23178,1.03467 13.26368,1.35351 7.03187,0.31885 13.91015,1.03464 15.28515,1.58985 3.4191,1.38057 6.27875,1.39757 5.43555,0.0332 -1.2738,-2.06103 -6.92045,-3.71612 -15.12305,-4.43164 -2.13257,-0.18603 -4.42927,-0.27035 -6.66211,-0.27344 z m -31.93751,11.03711 c -0.80738,0.009 -1.36863,0.0913 -1.54492,0.26758 -0.8311,0.83113 0.54555,1.69009 4.03125,2.51562 1.8154,0.42994 5.32578,0.81472 7.80078,0.85352 3.9408,0.0618 4.28271,-0.0953 2.75391,-1.25586 -1.42366,-1.08086 -9.54238,-2.42065 -13.04102,-2.38086 z m -13.23633,3.76953 c -2.8966,0 -4.16093,1.67716 -1.74023,2.3086 3.1046,0.80983 6.12972,0.71836 6.69922,-0.20313 0.6696,-1.08344 -1.73729,-2.10547 -4.95899,-2.10547 z"
         style="fill:#ffffff" />
      <path
         inkscape:connector-curvature="0"
         id="path25230"
         d="m 478.05971,-816.39395 c -1.5264,-1.52639 -0.44938,-4.56808 2.94969,-8.33045 1.989,-2.20158 3.09607,-4.00288 2.46016,-4.00288 -2.52823,0 -8.72914,4.05139 -11.36915,7.42809 -3.47706,4.44732 -7.24115,4.7654 -11.07101,0.93555 -2.95579,-2.9558 -3.10811,-3.61364 -1.5227,-6.57602 0.89211,-1.66691 0.79263,-2.26056 -0.5,-2.98395 -2.23467,-1.25058 -2.02066,-2.80367 0.38634,-2.80367 1.1,0 2,-0.45 2,-1 0,-0.57307 -3.04081,-1 -7.12244,-1 -6.12828,0 -6.95346,0.20362 -5.91175,1.4588 0.99969,1.20456 0.73625,1.57787 -1.51164,2.14206 -3.31958,0.83316 -30.48227,-0.30603 -39.45418,-1.6547 -3.575,-0.53739 -9.425,-1.40632 -13,-1.93094 -22.68771,-3.32936 -22.33885,-3.23915 -25.75,-6.65839 -1.7875,-1.79173 -3.25,-3.56957 -3.25,-3.95074 0,-0.38118 4.1625,-0.41236 9.25,-0.0693 l 9.25,0.62375 -7.54125,-2.83336 c -4.14769,-1.55835 -8.60117,-3.40062 -9.89664,-4.09393 -1.98344,-1.06151 -2.49444,-1.0121 -3.23594,0.31288 -1.39792,2.49794 -7.32102,3.11852 -12.15274,1.27326 -6.17266,-2.35736 -8.12475,-2.03431 -11.84219,1.95974 -3.16596,3.40152 -9.55251,7.42087 -11.79141,7.42087 -0.57191,0 -1.03984,-0.83026 -1.03984,-1.84501 0,-3.3903 -3.50164,-5.47553 -8.2255,-4.89828 -2.35097,0.28729 -5.0217,0.82973 -5.93494,1.20544 -2.25922,0.92943 -8.83956,-10.69929 -8.83956,-15.62117 0,-3.8713 3.65123,-8.11388 8,-9.29569 1.375,-0.37367 3.76286,-1.16432 5.30636,-1.75701 l 2.80636,-1.07762 -3.07036,-1.48702 c -3.47921,-1.68503 -4.91509,-5.46714 -2.96684,-7.81464 2.67704,-3.22564 17.91649,-9.40901 23.18932,-9.40901 5.25314,0 -3.37028,5.6528 -14.51484,9.51472 -3.37495,1.16952 -4.75,2.18463 -4.75,3.50663 0,2.99434 1.6664,3.22313 6.73848,0.92517 9.80695,-4.44315 11.26152,-4.95799 11.26152,-3.98599 0,0.54306 -3.2625,3.21543 -7.25,5.93861 -3.9875,2.72318 -8.78104,6.2224 -10.65231,7.77604 -1.87128,1.55365 -4.79117,3.04982 -6.48865,3.32482 -1.88565,0.30548 -3.21653,1.18081 -3.42101,2.25 -0.49783,2.60313 4.03827,2.2587 7.48525,-0.56835 3.6256,-2.97356 16.09525,-8.92547 17.62861,-8.41436 0.64463,0.21488 -0.84708,1.66532 -3.31491,3.22321 -2.46784,1.55788 -6.86526,4.34991 -9.77205,6.20451 -5.09659,3.25174 -9.58817,8.73507 -8.85073,10.805 0.66012,1.85289 4.09305,0.63635 12.54982,-4.44733 4.62771,-2.78189 8.62796,-4.84403 8.88945,-4.58255 0.84183,0.84183 -4.85248,7.52988 -6.41106,7.52988 -1.32582,0 -1.31974,0.26566 0.0509,2.22251 0.85619,1.22237 1.5567,3.05226 1.5567,4.06642 0,1.42159 0.62986,1.77144 2.75,1.52749 1.5125,-0.17403 2.64271,-0.86331 2.51157,-1.53173 -0.6393,-3.25849 2.24546,-6.57403 10.6183,-12.20392 4.935,-3.31829 9.25371,-6.4879 9.59714,-7.04358 1.09019,-1.76396 -1.20682,-7.90826 -4.52065,-12.0923 -1.76065,-2.22301 -5.01643,-8.40753 -7.23506,-13.74337 -3.34288,-8.03972 -4.1102,-11.15753 -4.47953,-18.20153 -0.44131,-8.41674 -0.1796,-10.20595 4.54977,-31.10529 5.64009,-24.92384 27.96058,-47.96809 47.92179,-49.4757 11.19362,-0.84541 15.28668,-1.49394 15.28668,-2.42211 0,-0.4843 -3.2625,-0.67848 -7.25,-0.43152 l -7.25,0.44902 3.5,-1.61961 c 1.925,-0.89079 4.57491,-2.03163 5.88869,-2.53519 5.00185,-1.91718 1.01068,-1.90889 -5.20458,0.0108 -8.37976,2.58824 -17.12755,3.51205 -22.18411,2.34275 -3.58045,-0.82795 -3.73778,-0.98323 -1.5,-1.48037 1.375,-0.30547 6.1,-1.04553 10.5,-1.64457 4.94667,-0.67348 10.06879,-2.13862 13.42043,-3.83872 6.7115,-3.4044 7.97269,-5.8606 1.36833,-2.6648 -6.3214,3.0588 -18.18566,5.40769 -22.45699,4.446 -3.7972,-0.855 -3.05414,-1.2569 5.62371,-3.0414 6.02817,-1.2397 17.96128,-5.9059 17.15788,-6.7093 -0.24023,-0.2402 -3.65334,0.7235 -7.58467,2.1416 -3.93134,1.4181 -7.79607,2.5784 -8.58829,2.5784 -3.02301,0 -1.21152,-1.6289 4.73364,-4.2565 7.01871,-3.1021 7.41977,-4.3284 0.76009,-2.3241 -6.46004,1.9442 -21.93413,2.5071 -21.93413,0.7979 0,-0.4305 4.2181,-1.2842 9.37355,-1.8971 5.15545,-0.613 10.44295,-1.7233 11.75,-2.4674 2.28612,-1.3014 2.2054,-1.3628 -2.12355,-1.6165 -11.15037,-0.6535 -12.53642,-3.2288 -1.75,-3.2516 8.83693,-0.019 12.0215,-1.4297 5.63099,-2.495 -6.33613,-1.0562 -16.68962,-4.371 -17.43888,-5.5834 -1.14722,-1.8562 0.16105,-1.9578 4.6519,-0.3613 5.7384,2.0401 20.90599,3.2035 20.90599,1.6035 0,-0.7616 -2.50286,-1.1485 -7.43045,-1.1485 -6.90169,0 -7.45319,-0.1572 -7.75,-2.209 -0.17575,-1.215 -1.21955,-2.4525 -2.31955,-2.75 -2.55503,-0.6911 -8.5,-4.2704 -8.5,-5.1175 0,-0.3549 3.9375,0.8154 8.75,2.6008 4.8125,1.7854 10.8875,3.5504 13.5,3.9222 4.6194,0.6574 4.75,0.6047 4.75,-1.9174 0,-3.8074 -2.45333,-9.0328 -5.11687,-10.8984 -1.28048,-0.8969 -3.80172,-1.6307 -5.60276,-1.6307 -4.77118,0 -10.56751,-5.6742 -14.81289,-14.5007 -2.9168,-6.0643 -3.46748,-8.2963 -3.46748,-14.0542 0,-4.1925 0.35686,-6.477 0.9209,-5.8951 0.50649,0.5225 2.78144,6.6911 5.05542,13.7079 3.95658,12.2089 4.29602,12.8404 7.88705,14.6724 3.74498,1.9105 3.7552,1.9101 5.08045,-0.212 1.17266,-1.8777 1.07109,-2.3071 -0.86874,-3.6723 -1.20816,-0.8503 -3.4068,-2.5443 -4.88587,-3.7644 l -2.68921,-2.2184 3.27725,-0.032 c 4.80539,-0.046 15.62515,9.7982 17.27545,15.7184 0.6516,2.3375 1.63238,4.25 2.17952,4.25 1.02509,0 0.62501,-4.157 -0.69778,-7.25 -1.28844,-3.0127 1.30981,-1.9519 2.93988,1.2003 1.03316,1.9979 1.52568,5.8309 1.52568,11.8734 0,5.8429 0.71755,11.6419 2.07874,16.7997 1.14331,4.3321 2.32205,8.8957 2.61941,10.1414 0.78159,3.274 2.14758,3.698 2.85344,0.8857 1.1901,-4.7418 10.28481,-10.7994 22.94842,-15.2851 10.66558,-3.778 24.67128,-1.4256 34,5.7106 6.6671,5.1002 22.06463,20.6927 21.24413,21.5132 -0.35784,0.35784 -3.46527,-1.46519 -6.9054,-4.0512 -6.91488,-5.198 -11.83873,-8.0202 -11.83873,-6.7855 0,0.8171 1.00095,2.2602 9,12.97611 2.475,3.31562 5.4,7.52374 6.5,9.35138 1.1,1.82764 2.49792,4.1452 3.10649,5.15013 1.65819,2.73818 15.78154,9.25152 25.1752,11.61016 7.3801,1.85307 9.2306,1.96116 17,0.99295 4.7951,-0.59756 9.074,-1.40767 9.5087,-1.80024 0.4347,-0.39257 -0.9962,-1.89605 -3.1797,-3.34106 -6.2347,-4.12594 -13.7087,-16.4939 -11.3766,-18.82601 1.4725,-1.47254 10.766,3.4707 15.4838,8.23596 5.8707,5.92961 8.7041,7.16986 33.1529,14.51195 9.6029,2.88379 17.123,5.82416 21.2287,8.3004 5.0331,3.03562 8.0813,4.0816 14.6292,5.01986 13.2606,1.90016 13.584,1.99853 11.5232,3.50543 -0.9602,0.70209 -5.2347,1.85279 -9.4988,2.55712 -4.2642,0.70433 -8.1325,1.62018 -8.5963,2.03524 -1.4219,1.27242 10.4926,5.11275 16.543,5.33223 3.1375,0.11381 6.0261,0.52845 6.4191,0.92141 1.2662,1.26617 4.202,0.76849 9.6317,-1.63278 2.9191,-1.29099 6.9255,-2.65079 8.903,-3.02176 1.9774,-0.37098 4.9709,-1.98902 6.6521,-3.59566 6.0275,-5.76027 17.6943,-6.41823 17.6943,-0.99789 0,2.30574 -0.4139,2.49886 -6.5,3.03241 -6.5259,0.5721 -16.4979,3.93992 -25.1353,8.48892 -2.5494,1.34268 -6.1269,2.44124 -7.95,2.44124 -2.0608,0 -2.9553,0.35242 -2.3647,0.93167 0.5225,0.51241 8.7125,1.73905 18.2,2.72586 9.4875,0.98681 17.25,2.09008 17.25,2.45172 0,1.31148 -4.3602,1.74071 -13.3379,1.31299 -9.9576,-0.47441 -10.0288,-0.17774 -0.5724,2.3848 3.4362,0.93113 6.4382,2.26742 6.6711,2.96953 0.5258,1.58461 -3.69,0.9805 -19.5108,-2.7958 -6.1875,-1.47691 -11.25,-2.33411 -11.25,-1.90488 0,1.42113 10.5921,4.77265 18.6082,5.88794 4.3405,0.6039 9.6918,1.52336 11.8918,2.04323 9.8763,2.33385 28.8516,0.0662 32.5,-3.88386 2.2213,-2.40492 6.7126,-5.12319 8.4649,-5.12319 0.8443,0 1.5351,0.775 1.5351,1.72222 0,1.51958 0.2428,1.47951 2.0628,-0.34053 2.0253,-2.02533 2.0333,-2.21527 0.4389,-10.47223 -1.8701,-9.68511 -4.0529,-20.01539 -5.8972,-27.90947 l -1.285,-5.5 -0.7844,9.82732 c -0.9262,11.60223 -2.6371,20.01268 -4.0351,19.83473 -0.5739,-0.0731 -1.4741,-7.48403 -2.1127,-17.39467 -1.2419,-19.27084 -1.678,-23.12443 -4.5428,-40.14158 -1.0994,-6.5308 -1.732,-12.9379 -1.4057,-14.2379 0.3263,-1.3001 0.1995,-3.1567 -0.2818,-4.1258 -0.4813,-0.9692 -1.6531,-4.2371 -2.604,-7.2621 -2.4294,-7.7283 -11.293,-26.2507 -13.2792,-27.75 -0.9108,-0.6875 -2.695,-1.25 -3.9649,-1.25 -1.2699,0 -2.3098,-0.5625 -2.3109,-1.25 0,-0.6875 -2.2412,-6.9907 -4.9781,-14.007 -5.0481,-12.9412 -5.6173,-14.2609 -13.0439,-30.243 -6.5805,-14.1611 -10.809,-25.6851 -11.3958,-31.0568 -0.5945,-5.4414 2.2182,-18.1277 3.9198,-17.6803 1.1683,0.3072 1.1597,7.9835 -0.015,13.7371 -0.7392,3.6194 -0.6626,3.8729 0.8055,2.6639 2.4534,-2.0205 3.3622,-0.7879 4.0975,5.558 1.633,14.0917 5.8607,23.2859 9.7504,21.2042 1.4402,-0.7707 1.8621,-0.6487 1.8621,0.5387 0,2.9815 1.8536,1.4819 3.3558,-2.7148 2.7212,-7.6025 5.1227,-17.75 4.2007,-17.75 -0.2164,0 -1.3652,2.9201 -2.5529,6.4891 -2.2043,6.6238 -4.0036,9.1768 -4.0036,5.6804 0,-1.0717 0.6441,-5.4858 1.4315,-9.8091 0.7873,-4.3232 1.7331,-11.1247 2.1019,-15.1144 0.7191,-7.7816 2.4209,-10.8372 2.5368,-4.555 0.039,2.0949 0.4967,4.709 1.0179,5.809 0.6344,1.3391 0.7828,-1.2603 0.4488,-7.8667 l -0.4987,-9.8666 3.0269,-2.8275 c 3.0259,-2.8267 3.0271,-2.8269 3.8373,-0.6334 0.4457,1.2068 1.1,2.8692 1.4539,3.6942 0.9374,2.1853 -0.3315,-14.6497 -1.5316,-20.319 -1.5554,-7.3478 0.2596,-8.03 2.6745,-1.0054 0.7232,2.1034 1.6941,3.8244 2.1578,3.8244 3.2762,0 -1.316,-13.9979 -9.2678,-28.25 -3.9827,-7.1382 -3.2597,-8.1609 1.5438,-2.1837 1.7972,2.2364 3.4658,3.8682 3.708,3.626 0.6277,-0.6277 -3.4135,-7.4707 -7.2606,-12.2941 -1.7993,-2.256 -4.0471,-5.7283 -4.9951,-7.7163 -2.5466,-5.3402 -8.9591,-7.6907 -24.3083,-8.91 -1.8827,-0.1495 -3.6022,-0.8178 -3.8211,-1.485 -1.0758,-3.2787 11.6118,-2.2862 24.3875,1.9078 5.2568,1.7257 7.0937,2.9672 10.6454,7.1954 8.4884,10.1049 15.8072,21.6099 13.747,21.6099 -0.5585,0 -2.6632,-2.4818 -4.6772,-5.5151 -2.014,-3.0333 -3.7746,-5.3958 -3.9123,-5.25 -0.1378,0.1458 1.0827,4.2399 2.712,9.098 4.6889,13.98 6.8837,35.6671 3.6096,35.6671 -0.54,0 -0.714,-0.6984 -0.3864,-1.552 0.3415,-0.8899 0.1738,-1.2913 -0.393,-0.941 -0.5625,0.3477 -0.9612,5.4338 -0.9252,11.802 0.049,8.5899 0.2992,10.6099 1.0779,8.691 1.7409,-4.2904 3.9743,-18.9557 4.6811,-30.738 0.696,-11.6016 2.2906,-15.2457 3.1776,-7.262 0.6503,5.8525 1.8615,3.8901 2.5706,-4.1649 0.7464,-8.4781 1.279,-10.8351 2.4485,-10.8351 0.5395,0 0.9809,1.5485 0.9809,3.441 0,1.8925 0.5139,3.7586 1.142,4.1467 0.8411,0.5199 0.9572,-1.4113 0.4408,-7.3315 -0.5375,-6.162 -0.3492,-8.8794 0.807,-11.6467 3.1333,-7.499 4.562,-3.3152 4.7004,13.7655 0.08,9.8187 0.2253,10.714 1.2404,7.625 l 1.1503,-3.5 0.3071,5.6711 c 0.6651,12.2808 -4.1813,31.239 -11.9711,46.8289 -2.6108,5.225 -3.8489,8.375 -2.7515,7 4.0187,-5.0351 10.7752,-20.7733 13.3084,-31 3.427,-13.8347 4.6095,-21.8356 4.6187,-31.25 0.01,-8.1175 1.4295,-10.3482 2.6042,-4.0865 0.9161,4.8832 -0.1903,22.0366 -2.0473,31.7425 -2.3407,12.2334 -6.4077,24.7956 -11.3617,35.094 -0.3207,0.6666 -0.1195,0.6666 0.6036,0 2.3827,-2.1965 8.3011,-18.2118 11.7205,-31.7156 3.4504,-13.626 3.6389,-15.2523 4.0913,-35.2844 0.3829,-16.9597 0.7588,-21.2161 1.9534,-22.1233 1.2593,-0.9563 1.1072,-1.367 -1.0227,-2.7626 -1.3761,-0.9017 -2.7915,-2.8712 -3.1453,-4.3767 -0.3538,-1.5056 -2,-5.3275 -3.6583,-8.4931 -2.3927,-4.5679 -4.78,-7.1069 -11.5677,-12.3034 -15.1348,-11.5866 -32.8805,-18.773 -49.7084,-20.1304 -10.9711,-0.8849 -30.5693,2.1535 -47.3242,7.337 -7.9035,2.4451 -14.5861,4.2296 -14.8501,3.9656 -0.9756,-0.9756 0.9219,-2.6087 5.2616,-4.5284 2.4523,-1.0847 4.4586,-2.2897 4.4586,-2.6777 0,-1.0045 -36.4977,0.5134 -42.5,1.7675 -6.7137,1.4028 -16.7381,6.7459 -24.0247,12.8056 -6.466,5.3772 -7.4753,5.8448 -7.4753,3.4634 0,-2.5075 -5.31294,1.0968 -11.62142,7.884 -5.49975,5.917 -8.37857,11.1189 -8.37857,15.1396 0,2.7096 -1.08367,3.7012 -12.5,11.4377 -4.95,3.3544 -12.6,8.9588 -17,12.4542 -8.48237,6.7383 -17.10201,11.641 -20.46676,11.641 -4.62652,0 -1.74474,-2.6427 10.31406,-9.4586 2.66601,-1.5068 8.42419,-5.6275 12.79595,-9.157 4.37176,-3.5296 9.95996,-7.3628 12.41822,-8.5183 5.34021,-2.5102 6.72852,-4.3449 13.42376,-17.7397 l 5.13813,-10.2797 9.18832,-5.9526 c 12.25241,-7.9377 27.62281,-15.3296 36.05251,-17.3382 3.7754,-0.8996 14.1254,-2.0712 23,-2.6035 8.8747,-0.5323 19.7358,-1.383 24.1358,-1.8906 15.3735,-1.7734 45.0976,-3.2993 57,-2.9262 10.4292,0.3269 12.6195,0.7026 16.7322,2.8702 26.5631,14.0007 43.3141,27.396 46.2615,36.9942 0.4223,1.375 2.5092,6.3852 4.6378,11.1337 2.9314,6.5397 4.2415,11.2691 5.4017,19.5 3.059,21.7005 4.6139,30.024 7.1439,38.2414 2.3041,7.4836 2.506,9.3634 1.8972,17.6579 -0.4877,6.6442 -0.3497,9.4877 0.4855,10.0039 2.4828,1.5345 5.054,9.3352 4.3544,13.2107 -0.9596,5.3156 -2.0067,7.0967 -7.4975,12.7524 l -4.8542,5 -3.0313,17.6552 c -1.6671,9.7105 -3.0312,18.823 -3.0312,20.2501 0,3.6185 2.6865,3.4001 11.1347,-0.9053 7.9303,-4.0415 13.038,-4.4729 18.7081,-1.5802 4.3315,2.2097 6.1572,5.5093 6.1572,11.1272 0,5.073 -1.6175,5.0871 -2.9803,0.026 -2.544,-9.4478 -12.0743,-11.8538 -21.9733,-5.5474 -2.9995,1.911 -6.1495,3.4887 -7,3.5062 -0.8505,0.017 -2.4199,0.6925 -3.4875,1.5 -1.8222,1.3783 -1.7201,1.4682 1.6682,1.4682 1.9852,0 4.3212,0.2732 5.1911,0.607 2.6895,1.0321 1.7473,2.3923 -1.6682,2.4083 -4.4414,0.021 -6.7083,1.4959 -3.5845,2.3323 1.284,0.3438 3.347,0.6313 4.5845,0.6388 3.3841,0.021 2.7034,1.7575 -1,2.5518 -4.373,0.9379 -5.2213,1.5459 -3.6067,2.585 0.7462,0.4802 3.3266,0.5893 5.7343,0.2423 6.7093,-0.9668 4.8443,1.7914 -2.4498,3.6231 -8.0578,2.0235 -3.0392,2.6548 5.4725,0.6884 4.3254,-0.9993 6.0725,-1.0903 5.814,-0.3028 -0.4058,1.2361 -7.6684,3.912 -14.7143,5.4215 l -4.5,0.9642 5.5399,0.12 c 3.047,0.066 8.1314,-0.5549 11.2988,-1.3799 6.7184,-1.7499 7.6613,-1.8213 7.6613,-0.5803 0,0.5058 -2.3625,1.6646 -5.25,2.5752 -9.372,2.9555 -10.75,3.6768 -10.75,5.6265 0,1.0332 -0.6484,1.8786 -1.4409,1.8786 -0.7926,0 -1.7584,0.5136 -2.1464,1.1413 -0.7812,1.2641 6.1307,0.7403 12.8373,-0.9728 2.0625,-0.5268 3.75,-0.5925 3.75,-0.1459 0,0.8381 -4.7939,2.7572 -13.5,5.4043 l -5,1.5203 5,-0.4353 c 2.75,-0.2394 7.25,-0.7374 10,-1.1066 7.2233,-0.9699 5.0339,0.3738 -5.5924,3.4322 -9.2245,2.655 -11.8171,4.4299 -7.9485,5.4416 1.1225,0.2935 2.0409,1.2508 2.0409,2.1273 0,1.9561 6.6498,2.1155 11.9791,0.2872 3.068,-1.0526 3.6167,-1.7843 4.6444,-6.1936 2.4381,-10.4593 8.5618,-23.5 11.0355,-23.5 1.8653,0 1.8687,-0.011 -3.159,10 l -4.5,8.9601 0,13.9115 c 0,13.65241 -0.043,13.92231 -2.2829,14.48462 -2.5166,0.63163 -19.1553,2.6226 -22.0261,2.63563 -0.9949,0.005 -1.5309,0.4582 -1.191,1.0082 0.7697,1.24539 7.9583,1.25483 16.4918,0.0217 3.5705,-0.51596 6.8276,-0.60232 7.238,-0.1919 0.8586,0.85863 -2.3963,7.3924 -3.9388,7.90657 -0.6035,0.20117 -0.8281,-0.70693 -0.5433,-2.19671 0.4672,-2.44396 0.2983,-2.53963 -4.4844,-2.53963 -7.9012,0 -17.2575,1.20037 -16.677,2.13961 0.2925,0.47321 4.5552,0.86039 9.4728,0.86039 5.294,0 8.9409,0.4079 8.9409,1 0,0.55 -0.1125,1.03392 -0.25,1.07538 -0.1375,0.0415 -4.075,0.65737 -8.75,1.3687 -6.9708,1.06065 -7.6904,1.3197 -4,1.43994 2.475,0.0806 5.0988,0.52621 5.8307,0.99016 1.8456,1.16998 -3.3802,2.12582 -11.6223,2.12582 -3.5979,0 -6.3106,0.23107 -6.0282,0.5135 0.2824,0.28242 5.5346,0.55394 11.6715,0.60337 6.137,0.0494 11.3621,0.42002 11.6115,0.82354 0.7744,1.25295 -2.4824,5.05959 -4.3287,5.05959 -0.9637,0 -2.6257,0.66069 -3.6933,1.4682 -1.88,1.42194 -1.865,1.4692 0.4755,1.5 5.0498,0.0664 0.6873,1.46697 -6.7026,2.15174 -4.2427,0.39315 1.3984,0.48074 12.5359,0.19464 14.4063,-0.37007 20.25,-0.20194 20.25,0.58262 0,0.60654 -0.7875,1.11285 -1.75,1.12513 -6.1214,0.0781 -38.3257,2.90642 -39.1923,3.44202 -1.7632,1.08975 -1.1926,2.80151 0.6923,2.07685 2.1556,-0.82871 42.3899,-2.73464 43.0837,-2.04091 1.1366,1.13659 -1.3463,1.49707 -20.8795,3.03141 -21.7082,1.7052 -23.8347,2.02697 -22.3714,3.38516 0.5052,0.46885 8.4102,0.39741 17.5962,-0.15903 15.4593,-0.93644 22.9855,-0.58897 21.4082,0.98837 -0.3569,0.35688 -8.7887,1.19869 -18.7374,1.8707 -15.5573,1.05086 -21.5633,2.18189 -19.7831,3.72551 0.2383,0.20666 5.6466,-0.0875 12.0184,-0.65362 10.6496,-0.94624 16.1363,-0.5768 14.5779,0.98159 -0.3428,0.34282 -4.7947,0.97541 -9.8931,1.40577 -5.0984,0.43036 -10.6199,1.3511 -12.2699,2.04609 l -3,1.26361 2.8754,0.38559 c 1.5814,0.21208 7.3365,-0.0997 12.7892,-0.69292 12.1714,-1.32409 22.8354,-1.39436 22.8354,-0.15046 0,1.07021 -5.8791,1.75934 -21.728,2.54687 -9.9117,0.49251 -17.2996,1.84644 -16.1607,2.96163 0.2138,0.20932 15.3833,-0.29401 33.71,-1.11851 32.3564,-1.45568 38.1787,-1.34878 38.1787,0.70102 0,0.57543 -4.2373,0.99391 -10.25,1.01229 -10.5769,0.0324 -35.732,1.33993 -49.1249,2.55356 -4.1906,0.37974 -8.4081,1.33518 -9.3722,2.12319 -1.5694,1.28276 -1.3342,1.37377 2.2471,0.86939 8.889,-1.25189 32.5,-1.8781 32.5,-0.86195 0,1.16938 -6.2996,1.95557 -23.4389,2.92518 -9.0985,0.51472 -11.3586,0.90129 -9.5,1.62491 1.4693,0.57202 12.5769,0.69598 27.9389,0.3118 25.6266,-0.64088 32.0017,-0.28274 31.9981,1.79759 -10e-4,0.80012 -7.0043,1.14834 -24.25,1.20583 -13.3364,0.0445 -27.3981,0.45923 -31.2481,0.92172 l -7,0.84088 5,0.86266 c 2.75,0.47447 10.7375,0.58141 17.75,0.23765 8.6006,-0.42161 12.75,-0.28482 12.75,0.42031 0,1.41897 -4.1423,2.05563 -19.7879,3.04131 -21.434,1.35035 -16.6212,2.39304 7.4376,1.61132 21.0419,-0.68369 28.3503,-0.31906 28.3503,1.41447 0,0.42474 -6.6375,1.09176 -14.75,1.48227 -8.1125,0.39051 -20.15,1.3063 -26.75,2.03509 l -12,1.32507 13.191,0.11321 c 11.8384,0.1016 16.0777,0.90206 13.4333,2.53643 -0.4996,0.30877 -8.2695,0.89348 -17.2663,1.29935 -15.3405,0.69203 -15.8915,0.78303 -8.858,1.46304 4.125,0.39881 15.7125,0.46398 25.75,0.14482 12.3978,-0.39421 18.25,-0.24508 18.25,0.46505 0,1.31744 -7.5085,1.97498 -31.5,2.75851 -10.45,0.34128 -20.8,1.00178 -23,1.46779 -2.4358,0.51594 2.1591,0.62492 11.75,0.27867 10.3035,-0.37197 15.75,-0.21965 15.75,0.44047 0,1.44348 -4.9544,2.23945 -14.875,2.38978 -4.7437,0.0719 -12,0.48499 -16.125,0.918 -5.3388,0.56043 -2.3852,0.69158 10.25,0.45514 9.7625,-0.18269 17.75,-0.0239 17.75,0.35289 0,0.85771 -7.8084,4.94849 -10.5,5.50083 -1.2501,0.25655 -0.8564,0.45393 1.05,0.52644 1.6775,0.0638 3.5153,-0.34931 4.0841,-0.91802 0.5687,-0.56872 3.2462,-1.44632 5.95,-1.95023 2.7038,-0.50391 6.2659,-1.16567 7.9159,-1.47057 1.65,-0.30491 2.3287,-0.25352 1.5082,0.11419 -0.8919,0.39967 1.043,1.18563 4.8109,1.95422 9.4447,1.92654 23.907,9.0164 22.0734,10.82106 -0.2158,0.21247 -1.9675,-0.19971 -3.8925,-0.91596 -1.925,-0.71624 -6.2,-2.31099 -9.5,-3.54387 -11.6742,-4.36152 -27.3413,-3.39657 -33.631,2.07137 -2.1157,1.83935 -2.1552,2.00431 -0.369,1.54304 5.7609,-1.48766 16.0951,-2.57736 19.3253,-2.03775 6.0461,1.01003 15.939,4.45951 17.2215,6.00486 1.7361,2.09184 -0.3834,1.88984 -7.0468,-0.67159 -4.9652,-1.90868 -6.6667,-2.04529 -17.5,-1.40503 -18.5647,1.09722 -19.6422,1.23381 -21.079,2.67215 -1.1296,1.13074 0.2195,1.3611 8.3661,1.42856 6.8057,0.0564 10.8354,0.58418 13.4629,1.76342 4.4082,1.97835 5.0461,4.12631 1,3.36718 -13.0973,-2.45738 -16.4752,-2.77836 -22.75,-2.16181 -3.85,0.3783 -9.7,1.54002 -13,2.58161 -7.0713,2.23196 -14.6014,6.58117 -12.4469,7.18907 13.6931,3.86341 20.2963,6.6641 18.931,8.02939 -0.2821,0.28205 -3.6564,-0.36534 -7.4985,-1.43865 -12.7197,-3.55332 -19.3512,-3.51326 -33.4856,0.20225 -10.6877,2.80951 -14.2397,3.29324 -24.5,3.33651 -11.6938,0.0493 -12.2235,-0.0451 -20.7617,-3.6994 -10.3535,-4.43128 -11.9201,-4.64073 -8.6626,-1.15818 5.3907,5.76313 12.1976,7.13003 42.8442,8.60357 34.162,1.64257 44.074,0.59432 66.5801,-7.04124 4.95,-1.67936 13.3028,-4.3795 18.5617,-6.00029 5.2589,-1.6208 12.8435,-4.34347 16.8547,-6.05038 4.0112,-1.70692 8.1459,-3.10348 9.1884,-3.10348 2.9755,0 2.22,2.37407 -1.3548,4.25747 -3.5939,1.89349 -28.8696,10.74253 -30.684,10.74253 -0.6294,0 -6.5853,2.03533 -13.2354,4.52298 -22.0395,8.24437 -48.9402,10.21597 -75.0167,5.49809 -3.1273,-0.56582 -15.0523,-1.67409 -26.5,-2.46283 -12.1078,-0.83423 -22.8672,-2.08746 -25.7228,-2.99615 -2.7803,-0.88473 -8.4293,-1.56208 -13.0275,-1.56208 -9.3403,0 -11.5322,1.05809 -14.5839,7.03977 -2.1151,4.14595 -8.0353,8.47726 -20.1328,14.72947 -3.6593,1.89116 -9.8068,6.31674 -13.6613,9.83461 l -7.0081,6.39615 -6.5887,0 c -7.43057,0 -7.88151,-0.61638 -4.08879,-5.58889 2.68299,-3.51758 3.28263,-5.27604 1.25,-3.66568 -0.6875,0.54467 -5.41312,2.84977 -10.50137,5.12244 -8.7899,3.92601 -13.09766,4.94977 -14.58196,3.46546 z m 40.62512,-12.17008 c 3.9645,-3.4959 10.5832,-8.78524 14.7082,-11.75409 10.1721,-7.32106 23.4594,-19.85686 22.571,-21.29439 -0.3887,-0.62885 -2.4575,-2.03657 -4.5974,-3.12828 -2.14,-1.09171 -7.8469,-5.00101 -12.6822,-8.68733 -8.0534,-6.13976 -9.1723,-6.68955 -13.3288,-6.54926 -5.1386,0.17345 -13.135,3.40595 -26.96259,10.89954 -5.225,2.83158 -12.63882,6.39025 -16.47515,7.90814 -11.90943,4.71213 -22.52485,11.8423 -22.52485,15.12951 0,2.66667 2.3359,1.94541 25,-7.71927 9.30061,-3.96608 13.85746,-5.4437 14.575,-4.72616 1.28195,1.28195 -1.01813,3.02752 -9.22943,7.0044 -8.54402,4.13801 -13.10151,8.33019 -18.21393,16.75394 -3.92808,6.47232 -2.70308,7.48846 3.21576,2.6675 7.20845,-5.87137 26.28604,-16.26083 31.46579,-17.13593 5.5565,-0.93877 5.577,1.08537 0.045,4.46843 -4.35586,2.66385 -17.85839,16.47958 -17.85839,18.27256 0,0.58848 -0.74724,1.89565 -1.66054,2.90483 -0.91329,1.00918 -1.39491,2.10049 -1.07027,2.42513 0.75638,0.75638 9.22956,-5.0488 10.94602,-7.49938 1.21311,-1.73196 8.30922,-7.08156 18.62598,-14.04169 3.932,-2.65271 7.1588,-3.12558 7.1588,-1.04907 0,0.43911 -1.6129,2.72895 -3.5843,5.08852 -1.9714,2.35957 -4.8943,6.8852 -6.4954,10.05696 -1.6011,3.17176 -3.8131,6.24961 -4.9157,6.83967 -1.1025,0.59006 -2.00459,1.53245 -2.00459,2.09419 0,1.63427 5.51199,-2.06827 13.29179,-8.92847 z m -51.79179,3.83675 c 0.33992,-0.55 0.14148,-1 -0.44098,-1 -0.58246,0 -1.05902,0.45 -1.05902,1 0,0.55 0.19844,1 0.44098,1 0.24254,0 0.7191,-0.45 1.05902,-1 z m -39.25001,-11.73221 c -2.3375,-0.21053 -6.1625,-0.21053 -8.5,0 -2.3375,0.21054 -0.425,0.3828 4.25,0.3828 4.675,0 6.58751,-0.17226 4.25,-0.3828 z m 40.00001,-1.93007 c -0.6875,-0.27741 -1.8125,-0.27741 -2.5,0 -0.6875,0.27741 -0.125,0.50439 1.25,0.50439 1.375,0 1.9375,-0.22698 1.25,-0.50439 z m -16.28571,-6.90352 c 2.06666,-2.0242 0.15876,-1.70779 -3.96429,0.65745 l -3.5,2.00781 3,-0.61553 c 1.65,-0.33855 3.65893,-1.26093 4.46429,-2.04973 z m -56.9643,-1.1695 c -0.825,-0.31757 -4.875,-1.8118 -9,-3.32052 -4.125,-1.50872 -9.3,-3.50511 -11.5,-4.43643 -2.2,-0.9313 -3.55,-1.23572 -3,-0.67647 1.50154,1.52681 20.70027,9.07222 23,9.03938 1.4354,-0.0205 1.57655,-0.19155 0.5,-0.60596 z m 35.72244,-1.28799 c 11.18571,-2.58129 24.49939,-11.51623 30.50728,-20.47371 1.10778,-1.65165 -0.62822,-0.26454 -3.85778,3.08249 -6.68183,6.92485 -15.33962,12.45219 -23.37193,14.92116 -9.27357,2.85051 -10.55568,3.33343 -9.00001,3.38996 0.825,0.03 3.4001,-0.38398 5.72244,-0.9199 z m -11.00305,-2.42597 c 19.81862,-3.48785 34.00228,-13.13123 42.29548,-28.75641 5.16474,-9.73086 13.58065,-19.12106 10.96039,-12.22924 -0.53639,1.4108 -0.97525,3.67194 -0.97525,5.02475 0,1.73689 -0.80808,2.79869 -2.75,3.61342 l -2.75,1.15378 2.44397,0.41644 c 2.92429,0.49829 4.29374,-1.12872 6.38379,-7.58449 5.37632,-16.60643 7.15615,-30.59275 5.66707,-44.53317 -1.23882,-11.59746 -3.67057,-17.58798 -10.00861,-24.65584 -2.21943,-2.475 -4.76332,-5.9894 -5.65308,-7.80978 -2.08541,-4.26656 -14.4403,-13.88885 -23.64487,-18.4152 -9.24951,-4.54844 -15.30012,-5.77502 -28.48763,-5.77502 l -10.7009,0 -9.66638,5.34085 c -5.3165,2.93746 -11.14937,6.5887 -12.96192,8.11386 -2.37297,1.99673 -3.42004,2.39953 -3.74026,1.43886 -0.2446,-0.73379 2.66332,-4.20546 6.46204,-7.71483 6.80892,-6.29026 6.85718,-6.37056 3.40677,-5.66789 -5.65887,1.15243 -19.47208,9.18991 -23.65203,13.76238 -8.60623,9.41444 -15.16077,23.46674 -17.46495,37.44318 -1.82116,11.04663 -2.25733,31.9345 -0.83074,39.7836 1.64211,9.03491 8.57755,19.92826 19.62054,30.8176 8.624,8.50401 10.07505,9.64398 12.3051,9.66709 0.81286,0.008 -2.19788,-3.69719 -6.69054,-8.23469 -7.99368,-8.07347 -9.2787,-10.21184 -12.46939,-20.75 -2.53874,-8.38493 0.90104,-26.44374 6.70848,-35.21937 2.39063,-3.61248 2.55372,-5.78063 0.43483,-5.78063 -3.41166,0 -9.9613,24.17683 -9.9613,36.77036 0,7.57813 -0.16564,8.33706 -1.56594,7.17492 -5.80317,-4.81621 -5.64559,-13.52272 0.5782,-31.94528 5.21858,-15.44712 6.11713,-20.26613 4.79385,-25.70991 -0.8705,-3.5811 -0.70878,-4.85972 1.08273,-8.56047 2.11523,-4.36948 8.11116,-11.04162 8.11116,-9.02592 0,0.59283 -0.89012,3.03952 -1.97804,5.43709 -1.48577,3.27433 -1.9835,6.56343 -2,13.21619 -0.0199,8.04566 0.13834,8.79146 1.72804,8.14155 0.9625,-0.39349 3.325,-1.16703 5.25,-1.71896 6.33247,-1.81565 10.99965,-4.77923 17.04149,-10.82107 5.97985,-5.97985 7.95851,-7.12409 7.95851,-4.60231 0,1.85305 -6.28751,9.94699 -9.70971,12.49937 l -2.79029,2.08107 2.5,0.1501 c 1.375,0.0826 2.91849,0.0698 3.42998,-0.0283 2.14832,-0.41215 15.37884,2.2768 19.07117,3.87601 3.07553,1.33205 4.90057,3.2173 7.88901,8.14926 6.00549,9.91113 7.27359,12.89962 8.48583,19.99822 2.49025,14.58232 0.9054,24.38262 -5.78435,35.76874 -4.10936,6.99424 -6.40152,8.1906 -17.51751,9.143 -5.35436,0.45875 -9.96578,1.06467 -10.2476,1.34648 -0.92461,0.92462 5.57843,3.69875 11.93746,5.09238 8.18509,1.79384 7.94368,1.7922 17.4554,0.11824 z m -19.21939,-2.51237 c -4.16123,-1.0045 -1.85777,-1.80945 8.38273,-2.92935 5.39108,-0.58956 9.31679,-1.58602 11,-2.79211 3.44699,-2.46992 10.31472,-16.34855 12.43316,-25.12553 0.92626,-3.83766 1.73736,-10.51317 1.80243,-14.83447 0.20916,-13.88931 1.46014,-16.02453 3.87086,-6.60692 0.59836,2.3375 1.27864,4.25 1.51175,4.25 0.23311,0 0.15069,-2.925 -0.18315,-6.5 -0.39017,-4.17823 -0.23979,-6.5 0.42099,-6.5 2.21644,0 3.18651,12.40259 1.25269,16.01597 -0.5547,1.03647 -1.26988,5.39438 -1.58929,9.68426 -0.76765,10.30996 -2.70037,16.11989 -7.05464,21.20688 -4.33329,5.06246 -3.79726,6.30044 1.10802,2.559 9.33695,-7.12163 26.55453,-35.37329 31.11201,-51.05048 2.37748,-8.17824 1.43469,-16.47492 -2.97787,-26.20562 -1.91036,-4.2128 -3.27278,-7.86025 -3.02759,-8.10544 0.86093,-0.86093 5.66345,4.46615 10.39129,11.5263 6.68692,9.98567 8.04125,17.18588 5.18848,27.58428 -2.79599,10.1915 -6.09599,18.78485 -7.21371,18.78485 -1.16838,0 -1.26161,0.65968 1.04835,-7.41782 2.06505,-7.22112 3.85116,-26.76994 2.10894,-23.08218 -0.51968,1.1 -0.9765,3.06836 -1.01515,4.37414 -0.12539,4.23528 -12.21157,30.16513 -18.72861,40.18061 -5.53531,8.50674 -15.87921,18.38823 -22.00219,21.01861 -7.43176,3.19263 -22.27918,5.30726 -27.8395,3.96502 z m 49.16668,-47.70505 c -0.36667,-0.36666 -0.66667,-3.53112 -0.66667,-7.03212 0,-3.50099 -0.65204,-7.92599 -1.44897,-9.83333 -1.82189,-4.36038 -0.47981,-4.46243 2.8654,-0.21788 3.23642,4.1065 3.40965,2.71768 0.19543,-1.56672 -3.33937,-4.45122 -7.87823,-13.7508 -7.09301,-14.53272 1.78539,-1.77789 12.48115,16.99524 12.48115,21.90682 0,3.34178 -3.54512,11.94262 -4.92254,11.94262 -0.40927,0 -1.04413,-0.3 -1.41079,-0.66667 z m -14.80787,-29.30786 c -0.9613,-1.05893 -3.86119,-2.10778 -7.00001,-2.53181 -5.98279,-0.80824 -9.19269,-2.14441 -8.36578,-3.48238 0.30198,-0.4886 -0.20738,-1.31168 -1.13189,-1.82907 -1.52048,-0.8509 -1.47993,-1.04827 0.42484,-2.06767 1.67185,-0.89475 3.2573,-0.69614 7.6939,0.9638 6.92617,2.59141 15.81684,11.14144 11.27014,10.83833 -0.6875,-0.0458 -1.98854,-0.89688 -2.8912,-1.8912 z m -8.12964,-6.62965 c -0.3323,-0.33229 -1.1948,-0.36781 -1.91667,-0.0789 -0.79773,0.31922 -0.56078,0.55618 0.60417,0.60416 1.05416,0.0434 1.64479,-0.19293 1.3125,-0.52522 z m -71.72917,6.10418 c 0,-0.82501 0.45,-1.50001 1,-1.50001 0.55,0 1,0.675 1,1.50001 0,0.825 -0.45,1.5 -1,1.5 -0.55,0 -1,-0.675 -1,-1.5 z m 83.343,-9.25001 c -3.08749,-4.17612 -5.56961,-9.35671 -4.83497,-10.09136 0.82972,-0.82971 2.97247,2.01787 6.08859,8.09136 2.67164,5.20716 1.95856,6.34478 -1.25362,2 z m -87.343,-11.00114 c 0,-1.47986 22.79331,-22.3923 23.37697,-21.44793 0.28566,0.46221 -0.34171,2.25632 -1.39415,3.98692 -2.89767,4.76484 -21.98282,19.92422 -21.98282,17.46101 z m 113.00001,-1.24886 c -0.825,-0.53316 -2.41071,-0.97627 -3.5238,-0.98469 -1.11309,-0.008 -4.71309,-2.61346 -8,-5.78898 -9.46925,-9.14834 -26.23435,-15.89984 -42.79086,-17.23238 -5.39807,-0.43446 -10.05562,-1.03089 -10.35014,-1.32541 -1.00704,-1.00704 0.63834,-2.43758 3.40255,-2.95825 1.51923,-0.28617 4.68199,-1.23834 7.02834,-2.11593 5.38395,-2.01371 10.38463,-1.02578 21.73788,4.29453 12.83871,6.01642 37.49603,23.32438 37.49603,26.31996 0,1.09713 -3.185,0.96409 -5,-0.20885 z m -66.50001,-1.47908 c 7.65833,-6.16112 35.50001,-5.66707 35.50001,0.62994 0,0.7659 -1.30357,0.84497 -4.25001,0.25779 -5.33487,-1.06317 -14.89605,-1.08881 -25.25,-0.0677 -7.44607,0.73433 -7.86152,0.67755 -6,-0.82003 z m 203.5,98.53997 c -1.6963,-0.99325 -13.0987,-4.06088 -15.0943,-4.06088 -3.1517,0 1.2683,2.27212 6.7383,3.46394 7.4171,1.61602 10.4688,1.83403 8.356,0.59694 z m 32,-0.94738 c 0,-0.48758 -1.2375,-1.13149 -2.75,-1.43092 -1.5125,-0.29943 -5.6283,-1.27471 -9.1462,-2.16729 -8.1016,-2.05556 -10.6545,-0.4623 -2.9351,1.83184 9.0574,2.69181 14.8313,3.37948 14.8313,1.76637 z m -275.49332,-2.11604 c 2.55796,-0.97254 2.56926,-1.02105 0.79411,-3.40813 l -1.80079,-2.42155 -2.34183,2.16611 c -1.288,1.19136 -2.79895,3.01455 -3.35766,4.05154 -0.90245,1.67498 -0.72969,1.81361 1.54772,1.24202 1.40996,-0.35388 3.73126,-1.08737 5.15845,-1.62999 z m 294.79402,-1.90979 c 0.8551,-0.84262 -9.5867,-2.0688 -17.7173,-2.08056 -5.9617,-0.009 -5.2571,1.07845 1.7357,2.67794 5.2412,1.19883 14.5104,0.85235 15.9816,-0.59738 z m -185.73475,-7.21518 c 3.15927,-6.10936 1.4496,-4.68115 -3.14533,2.62751 -1.74282,2.77213 -1.74946,2.8916 -0.0874,1.57283 0.98927,-0.78494 2.444,-2.67509 3.23274,-4.20034 z m 121.43405,4.24883 c 0,-1.94552 -5.8384,-3.37329 -9.1184,-2.22988 -1.749,0.60971 -4.2113,1.10856 -5.4718,1.10856 -1.2604,0 -2.5699,0.45 -2.9098,1 -0.3946,0.63856 2.6563,1 8.441,1 4.9825,0 9.059,-0.39541 9.059,-0.87868 z m 78.5,-1.29897 c 1.4582,-0.63848 1.0857,-0.73304 -1.375,-0.34903 -1.8562,0.28967 -4.4703,0.52668 -5.809,0.52668 -1.3387,0 -2.165,0.43526 -1.8362,0.96725 0.6203,1.0037 5.5389,0.3794 9.0202,-1.1449 z m -279.5,-0.82235 c -0.5887,-1.1 -1.29537,-2 -1.57037,-2 -0.275,0 -0.0183,0.9 0.57037,2 0.5887,1.1 1.29537,2 1.57037,2 0.275,0 0.0183,-0.9 -0.57037,-2 z m 208.4563,0.75 c -0.5777,-1.50157 -13.8893,-13.82074 -24.3422,-22.5275 -13.434,-11.18978 -25.1647,-15.17188 -30.1141,-10.2225 -1.1,1.1 -2,2.4132 -2,2.91821 0,2.57208 1.4611,4.08179 3.9505,4.08179 3.4472,0 11.9507,2.90294 19.072,6.51081 6.0745,3.07753 25.9775,16.57937 27.9589,18.96675 1.5405,1.85616 6.173,2.08668 5.4749,0.27244 z m 19.0063,-0.65794 c 1.8542,-0.725 1.8187,-0.86168 -0.6441,-2.47534 -2.676,-1.75337 -4.655,-1.63493 -11.8185,0.70728 l -3.5,1.14438 4.5,0.61561 c 6.4352,0.88036 9.2267,0.88233 11.4626,0.008 z m -124.85994,-4.02719 c 4.61854,-2.16432 8.39735,-4.1752 8.39735,-4.46862 0,-0.6759 -2.30345,0.0836 -8,2.63788 -2.475,1.10976 -6.1875,2.24532 -8.25,2.52348 -3.63243,0.48987 -4.46973,1.18933 -3.08333,2.57572 1.13258,1.13259 2.26943,0.79282 10.93598,-3.26846 z m 140.82704,2.04894 c 0.698,-1.1294 -9.4314,-2.4341 -11.8104,-1.52122 -1.408,0.54031 -1.5041,0.86505 -0.4531,1.53126 1.7736,1.1243 11.5674,1.11628 12.2635,-0.01 z m -55.2708,-1.98729 c 2.1983,-0.823 2.0966,-0.95034 -1.6679,-2.08759 -3.6395,-1.09948 -4.5153,-0.97197 -9.5,1.38302 l -5.491,2.59416 7.1589,-0.50657 c 3.9374,-0.27861 8.2124,-0.90097 9.5,-1.38302 z m 73.2622,-0.36939 c 1.0566,-0.55583 7.1316,-1.55935 13.5,-2.23004 10.6923,-1.12605 11.3492,-1.31389 8.5789,-2.45305 -3.001,-1.23404 -7.759,-0.60039 -21,2.7967 -2.2,0.56443 -5.6875,1.29481 -7.75,1.62306 -2.0625,0.32826 -3.75,1.06599 -3.75,1.63941 0,1.20101 7.373,0.22743 10.4211,-1.37608 z m -87.759,-4.43975 c 2.9359,-0.92544 5.3379,-2.04187 5.3379,-2.48095 0,-1.59311 -5.3306,-2.0805 -10.3568,-0.94694 -6.1346,1.38352 -8.141,2.49596 -7.2123,3.99871 0.9919,1.60491 6.0827,1.36733 12.2312,-0.57082 z m -148.64385,-0.0674 c 0.0557,-2.28906 -6.46903,-23.25 -7.23727,-23.25 -0.50367,0 -0.70666,0.7875 -0.4511,1.75 4.33307,16.31952 6.1565,22.25 6.84114,22.25 0.45594,0 0.83719,-0.3375 0.84723,-0.75 z m -26.89618,-2.925 c -1.17884,-2.02721 -1.46351,-1.37835 -0.49853,1.13634 0.34294,0.8937 0.83419,1.41426 1.09166,1.15679 0.25747,-0.25747 -0.009,-1.28938 -0.59313,-2.29313 z m 220.87793,-0.1885 c 0,-0.47493 -4.3875,-2.10045 -9.75,-3.61227 -10.5724,-2.98065 -12.985,-3.96827 -11.6284,-4.76033 0.4831,-0.28207 6.5034,0.77942 13.3784,2.35888 11.0081,2.52899 27.236,3.97459 28.6577,2.55287 0.2263,-0.22626 -3.3167,-0.72739 -7.8731,-1.11362 -20.3999,-1.72921 -23.3077,-4.94294 -3.6338,-4.01595 15.005,0.70699 24.3004,-0.30928 40.3492,-4.41141 l 7,-1.78923 -15.5,-0.72356 c -26.707,-1.24672 -55,-6.15131 -55,-9.53426 0,-1.1039 3.8455,-0.61438 16,2.03677 11.0539,2.41107 48.713,5.56261 50.0843,4.19134 0.6676,-0.66762 -3.7566,-1.21286 -13.2918,-1.63807 -20.7785,-0.92659 -49.7925,-5.99932 -49.7925,-8.70559 0,-0.53464 0.1125,-0.97078 0.25,-0.9692 0.1375,0.002 5.65,0.91961 12.25,2.04008 10.3629,1.75929 42.604,5.90222 46.25,5.94305 1.8741,0.021 1.5049,-1.6737 -0.5,-2.29541 -0.9625,-0.29847 -5.0556,-1.70095 -9.0958,-3.11663 -4.0401,-1.41568 -8.6045,-2.57396 -10.143,-2.57396 -1.5384,0 -3.0492,-0.65671 -3.3572,-1.45934 -0.308,-0.80264 -2.7186,-2.56674 -5.357,-3.92023 -8.0279,-4.11837 -18.5987,-11.92478 -21.0136,-15.51831 l -2.2834,-3.3979 0,2.86083 c 0,3.44678 8.3058,11.81932 14.8256,14.9448 2.2833,1.09458 4.1566,2.58297 4.163,3.30754 0.022,2.55394 -7.7449,-1.15916 -15.6569,-7.48481 -5.3409,-4.27013 -6.1071,-4.21577 -2.7431,0.19464 2.9551,3.87437 2.7442,5.25645 -0.5343,3.50182 -3.5239,-1.88594 -7.8704,-8.8483 -9.1816,-14.7075 -2.2791,-10.18394 -5.9934,-9.55704 -19.9187,3.36185 -4.6497,4.31363 -11.379,10.26298 -14.954,13.22077 -3.575,2.9578 -6.6355,5.72085 -6.8011,6.14012 -0.1656,0.41928 2.0844,1.85988 5,3.20134 6.465,2.97449 19.9734,13.0588 24.9738,18.64334 3.5986,4.01905 6.309,5.58784 12.3273,7.13506 4.1927,1.07788 12.5,1.15263 12.5,0.11248 z m 93.1378,-2.76022 c 9.6244,-6.50406 9.6045,-6.66935 -0.7368,-6.12423 -5.0045,0.2638 -9.9545,0.97633 -11,1.58339 -1.8448,1.07114 -1.8419,1.10481 0.099,1.13973 1.1,0.0198 3.7599,0.52463 5.911,1.12187 5.5638,1.54478 3.1394,2.54557 -8.2937,3.42361 -10.9841,0.84356 -10.0681,2.29495 1.5205,2.40906 6.606,0.065 7.5372,-0.19965 12.5,-3.55343 z m -149.2231,-0.0377 c 5.453,-1.76111 6.0484,-3.26356 1.8778,-4.73791 -3.2795,-1.15937 -11.9891,2.72331 -11.1302,4.96177 0.7169,1.86821 2.9413,1.81439 9.2524,-0.22386 z m -133.24692,-3.99835 c -0.57253,-3.5281 -5.30916,-14.00054 -6.72937,-14.87827 -0.71129,-0.43961 -0.0806,2.0154 4.19113,16.31366 1.26645,4.23909 3.27478,3.10337 2.53824,-1.43539 z m 231.06142,3.05562 c -0.3323,-0.33229 -1.1948,-0.36781 -1.9167,-0.0789 -0.7977,0.31922 -0.5607,0.55618 0.6042,0.60416 1.0542,0.0434 1.6448,-0.19293 1.3125,-0.52522 z m 13.7708,-2.39585 c 1.8231,-0.78339 1.7788,-0.85943 -0.5,-0.85943 -1.375,0 -3.4,0.38674 -4.5,0.85943 -1.823,0.78339 -1.7788,0.85943 0.5,0.85943 1.375,0 3.4,-0.38674 4.5,-0.85943 z m -271.5,-2 c 0,-0.55 -0.19844,-1 -0.44098,-1 -0.24254,0 -0.7191,0.45 -1.05902,1 -0.33992,0.55 -0.14148,1 0.44098,1 0.58246,0 1.05902,-0.45 1.05902,-1 z m 149.5,0 c 1.8317,-0.78709 1.7896,-0.86406 -0.5,-0.9144 -1.375,-0.0302 -3.175,0.38124 -4,0.9144 -1.238,0.80009 -1.1507,0.95977 0.5,0.9144 1.1,-0.0302 2.9,-0.44171 4,-0.9144 z m 138.5,-4 c 0.825,-0.53316 1.05,-0.96937 0.5,-0.96937 -0.55,0 -1.675,0.43621 -2.5,0.96937 -0.825,0.53316 -1.05,0.96937 -0.5,0.96937 0.55,0 1.675,-0.43621 2.5,-0.96937 z m -313.33772,-6.25 c -0.27741,-0.6875 -0.50439,-0.125 -0.50439,1.25 0,1.375 0.22698,1.9375 0.50439,1.25 0.27741,-0.6875 0.27741,-1.8125 0,-2.5 z m 167.06692,1.64583 c -0.3323,-0.33229 -1.1948,-0.36781 -1.9167,-0.0789 -0.7977,0.31922 -0.5608,0.55618 0.6042,0.60416 1.0541,0.0434 1.6448,-0.19293 1.3125,-0.52522 z m 178.0208,-0.11208 c -1.5125,-0.22913 -3.9875,-0.22913 -5.5,0 -1.5125,0.22912 -0.275,0.41659 2.75,0.41659 3.025,0 4.2625,-0.18747 2.75,-0.41659 z m -294.69711,-7.83402 c -0.48454,-1.62235 -0.91966,-2.19903 -0.96694,-1.28152 -0.096,1.86229 0.97142,5.10775 1.50452,4.57465 0.18887,-0.18887 -0.053,-1.67077 -0.53758,-3.29313 z m 253.44711,2.55027 c -2.7491,-1.18132 -4.3279,-1.18132 -2.5,0 0.825,0.53316 2.175,0.94464 3,0.9144 0.9891,-0.0362 0.8188,-0.34772 -0.5,-0.9144 z m -248.83772,-4.25 c -0.27741,-0.6875 -0.50439,-0.125 -0.50439,1.25 0,1.375 0.22698,1.9375 0.50439,1.25 0.27741,-0.6875 0.27741,-1.8125 0,-2.5 z m -50.97296,-3.5 c -0.25152,-0.9625 -0.45732,-0.175 -0.45732,1.75 0,1.925 0.2058,2.7125 0.45732,1.75 0.25153,-0.9625 0.25153,-2.5375 0,-3.5 z m 312.71468,2.25 c 5.5279,-2.93923 7.3293,-3.1234 7.7777,-0.79518 0.2736,1.42064 0.9095,1.18553 3.8149,-1.41044 l 3.4866,-3.11526 -19.2382,0.16044 c -10.581,0.0882 -19.2397,0.49794 -19.2415,0.91044 -0.01,1.49945 -5.8863,0.68551 -16.4262,-2.27405 -5.9233,-1.66322 -12.054,-3.68822 -13.6238,-4.5 -1.5698,-0.81177 -3.439,-1.44416 -4.1538,-1.40531 -1.7421,0.0947 5.8133,3.39749 15.1331,6.61538 5.45,1.88175 10.2252,2.72342 17.0672,3.00825 15.7954,0.65756 17.8864,1.88874 6.6808,3.93364 l -6.1808,1.12792 10.1011,0.12208 c 8.9884,0.10864 10.619,-0.1533 14.8029,-2.37791 z m -296.01939,-4.88462 c -0.36634,-3.11699 -0.88216,-5.45116 -1.14628,-5.18705 -0.26411,0.26412 -0.16367,3.01367 0.22321,6.11013 0.38687,3.09646 0.9027,5.43063 1.14628,5.18705 0.24358,-0.24358 0.14314,-2.99313 -0.22321,-6.11013 z m 16.58795,-2.80008 c -1.45106,-8.62879 -3.31434,-13.75317 -2.47812,-6.8153 0.75493,6.2634 2.73686,15.10204 3.26744,14.57146 0.24247,-0.24247 -0.11272,-3.73274 -0.78932,-7.75616 z m 141.02744,6.1847 c 0,-0.55 -0.45,-1 -1,-1 -0.55,0 -1,0.45 -1,1 0,0.55 0.45,1 1,1 0.55,0 1,-0.45 1,-1 z m -164,-9 c -0.69105,-4.44228 -1.4548,-7.87853 -1.69723,-7.63611 -0.24242,0.24242 0.095,4.10499 0.74986,8.58348 0.65484,4.47849 1.41859,7.91474 1.69723,7.63611 0.27863,-0.27863 -0.0588,-4.1412 -0.74986,-8.58348 z m 16.5,-1 c -0.96909,-4.98925 -1.95871,-8.87462 -2.19917,-8.63416 -0.24045,0.24045 0.31963,4.55537 1.24463,9.58871 0.92499,5.03333 1.91462,8.9187 2.19917,8.63416 0.28454,-0.28454 -0.27554,-4.59946 -1.24463,-9.58871 z m -27.81068,1.25 c -0.25152,-0.9625 -0.45732,-0.175 -0.45732,1.75 0,1.925 0.2058,2.7125 0.45732,1.75 0.25153,-0.9625 0.25153,-2.5375 0,-3.5 z m 22.00001,0 c -0.25153,-0.9625 -0.45733,-0.175 -0.45733,1.75 0,1.925 0.2058,2.7125 0.45733,1.75 0.25152,-0.9625 0.25152,-2.5375 0,-3.5 z m 17.99378,2.5625 c -0.31922,-0.79773 -0.55618,-0.56078 -0.60416,0.60417 -0.0434,1.05416 0.19292,1.64479 0.52522,1.3125 0.33229,-0.33229 0.36781,-1.1948 0.0789,-1.91667 z m 114.81689,1.1875 c 0.3399,-0.55 0.168,-1 -0.382,-1 -0.55,0 -1.2781,0.45 -1.618,1 -0.3399,0.55 -0.168,1 0.382,1 0.55,0 1.2781,-0.45 1.618,-1 z m 134.5,0.63399 c 0,-0.2013 -2.8125,-1.38476 -6.25,-2.6299 -9.1147,-3.30157 -18.4944,-8.20178 -27.7076,-14.47521 -8.3901,-5.71302 -13.799,-8.73232 -17.9423,-10.01557 l -2.4,-0.74329 2.0471,2.86498 c 3.6313,5.08228 9.3006,10.365 11.1234,10.365 0.9758,0 4.2167,1.31684 7.2018,2.92631 9.5841,5.16728 33.9276,13.56772 33.9276,11.70768 z m -108.6639,-1.69786 c -0.7242,-0.72424 -2.1448,-0.75303 -4.45,-0.0902 l -3.3861,0.97368 4.45,0.0902 c 3.1448,0.0637 4.138,-0.22185 3.3861,-0.97368 z m 151.2228,-2.40433 c 1.0676,-0.8075 1.4646,-1.4825 0.8823,-1.5 -0.5824,-0.0175 -1.9324,0.62889 -3,1.4364 -1.0677,0.8075 -1.4647,1.4825 -0.8823,1.5 0.5824,0.0175 1.9324,-0.62889 3,-1.4364 z m -325.87579,-1.7193 c -0.31922,-0.79773 -0.55618,-0.56078 -0.60416,0.60417 -0.0434,1.05416 0.19292,1.64479 0.52522,1.3125 0.33229,-0.33229 0.36781,-1.1948 0.0789,-1.91667 z m 174.06689,-0.54097 c -2.0625,-0.21574 -5.4375,-0.21574 -7.5,0 -2.0625,0.21575 -0.375,0.39226 3.75,0.39226 4.125,0 5.8125,-0.17651 3.75,-0.39226 z m -164.06689,-2.45903 c -0.31922,-0.79773 -0.55618,-0.56078 -0.60416,0.60417 -0.0434,1.05416 0.19292,1.64479 0.52522,1.3125 0.33229,-0.33229 0.36781,-1.1948 0.0789,-1.91667 z m 5,0 c -0.31922,-0.79773 -0.55618,-0.56078 -0.60416,0.60417 -0.0434,1.05416 0.19293,1.64479 0.52522,1.3125 0.33229,-0.33229 0.36782,-1.1948 0.0789,-1.91667 z m 311.09259,0.0773 c 2.3833,-0.90044 3.9487,-3.49875 2.7999,-4.64752 -0.3693,-0.36932 -1.4374,-0.11366 -2.3735,0.56815 -0.9361,0.68181 -3.9521,2.35854 -6.7021,3.72607 l -5,2.48643 4.5,-0.63669 c 2.475,-0.35018 5.5241,-1.02357 6.7757,-1.49644 z m -144.2757,-1.8898 c 0.3883,-0.62819 -1.8426,-1 -6,-1 -4.1574,0 -6.3882,0.37181 -6,1 0.3399,0.55 3.0399,1 6,1 2.9601,0 5.6601,-0.45 6,-1 z m -59.24999,-1.70573 c -1.2375,-0.23836 -3.2625,-0.23836 -4.5,0 -1.2375,0.23835 -0.225,0.43337 2.25,0.43337 2.475,0 3.4875,-0.19502 2.25,-0.43337 z m 68.01909,-1.95021 c -0.6771,-0.27392 -2.0271,-0.29059 -3,-0.0371 -0.973,0.25354 -0.4191,0.47766 1.2309,0.49804 1.65,0.0204 2.4461,-0.18706 1.7691,-0.46099 z m 7.4883,-6.09406 c 1.4448,-2.18685 1.3919,-2.24675 -1.8854,-2.13401 -1.8546,0.0638 -2.5845,0.3218 -1.622,0.57333 3.7302,0.97479 1.4804,2.31398 -4,2.38097 -4.2121,0.0515 -5.2151,0.30651 -3.75,0.95355 3.6715,1.62143 9.6351,0.68174 11.2574,-1.77384 z m -67.00739,-0.96626 c -1.5125,-0.22913 -3.9875,-0.22913 -5.5,0 -1.5125,0.22912 -0.275,0.41659 2.75,0.41659 3.025,0 4.2625,-0.18747 2.75,-0.41659 z m -15.02083,-3.88792 c -0.3323,-0.33229 -1.1948,-0.36781 -1.91667,-0.0789 -0.79773,0.31922 -0.56078,0.55618 0.60417,0.60416 1.05416,0.0434 1.64479,-0.19293 1.3125,-0.52522 z m 46.00002,-6 c -0.3323,-0.33229 -1.1948,-0.36781 -1.9167,-0.0789 -0.7977,0.31922 -0.5608,0.55618 0.6042,0.60416 1.0541,0.0434 1.6448,-0.19293 1.3125,-0.52522 z m -47.6051,-17.6625 c -0.98762,-0.98026 -1.10248,-0.8654 -0.5598,0.5598 0.37553,0.98622 0.93469,1.54122 1.24258,1.23333 0.30789,-0.30789 6.4e-4,-1.11479 -0.68278,-1.79313 z m -13.15726,-5.98333 c -0.0182,-0.6875 -1.52367,-5.16708 -3.34538,-9.95463 -1.88995,-4.96688 -2.93688,-9.07994 -2.43814,-9.57868 0.49873,-0.49873 0.003,-1.98149 -1.15463,-3.4531 -3.36639,-4.27967 -2.31144,-6.05565 2.17186,-3.65627 1.80513,0.96608 1.66919,0.40845 -1.06574,-4.37172 -3.30139,-5.77018 -3.98411,-8.35028 -1.8848,-7.12268 0.6875,0.402 0.4231,-0.213 -0.58755,-1.3665 -2.52116,-2.8777 -11.09152,-6.9306 -17.61277,-8.3292 -12.05136,-2.5846 -22.11899,1.0275 -32.41199,11.6289 -3.45674,3.5603 -6.06434,6.69391 -5.79467,6.96358 0.26967,0.26966 3.0028,0.49811 6.07364,0.50766 3.07083,0.01 8.50833,0.63893 12.08334,1.39862 8.89996,1.89125 26.71108,10.42633 30.6397,14.68253 12.73707,13.79911 15.41628,16.01061 15.32713,12.65149 z m 18.03317,-3.54254 c 0,-1.17606 -4.39282,-5.20746 -5.67431,-5.20746 -0.72913,0 -1.32569,0.23111 -1.32569,0.51357 0,0.88707 2.45792,4.95601 3.40932,5.64391 0.97315,0.70364 3.59068,0.0111 3.59068,-0.95002 z m 221.99999,-4.20746 c 1.9302,-0.61813 1.2463,-0.81987 -3,-0.88501 -3.025,-0.0464 -6.175,0.35185 -7,0.88501 -1.8666,1.20629 6.2334,1.20629 10,0 z m -21,-3.50847 c 0,-2.2682 -0.1948,-2.38793 -2.0336,-1.25 -1.6208,1.00297 -1.7223,1.32411 -0.5,1.58179 0.8435,0.17783 1.5336,0.74033 1.5336,1.25 0,0.50968 0.225,0.92668 0.5,0.92668 0.275,0 0.5,-1.12881 0.5,-2.50847 z m -156,-4.30169 c 0,-1.22588 -6.2054,-7.31773 -6.824,-6.69913 -0.2966,0.29659 0.9807,2.10751 2.8385,4.02427 3.5769,3.69043 3.9855,3.96465 3.9855,2.67486 z m 164.7292,-7.79401 c -0.3323,-0.33229 -1.1948,-0.36781 -1.9167,-0.0789 -0.7977,0.31922 -0.5607,0.55618 0.6042,0.60416 1.0542,0.0434 1.6448,-0.19293 1.3125,-0.52522 z m -227.68819,-7.33825 c -2.96842,-4.16876 -3.59898,-3.88075 -0.81198,0.37087 1.23607,1.88565 2.4143,3.26156 2.61828,3.05758 0.20399,-0.20398 -0.60885,-1.74679 -1.8063,-3.42845 z m 227.70899,2.25309 c -0.9625,-0.25152 -2.5375,-0.25152 -3.5,0 -0.9625,0.25153 -0.175,0.45733 1.75,0.45733 1.925,0 2.7125,-0.2058 1.75,-0.45733 z m 3.9792,-4.91484 c -0.3323,-0.33229 -1.1948,-0.36781 -1.9167,-0.0789 -0.7977,0.31922 -0.5607,0.55618 0.6042,0.60416 1.0542,0.0434 1.6448,-0.19293 1.3125,-0.52522 z m 24.6536,-1.37862 c 0.6896,-0.68959 0.1667,-1.01719 -1.6237,-1.01719 -3.7123,0 -4.2984,-1.6368 -1.0153,-2.8357 2.4943,-0.9108 2.2692,-1.0139 -2.3688,-1.0854 -2.8187,-0.043 -6.6437,0.2569 -8.5,0.6673 -3.3673,0.7445 -3.3641,0.7474 1.3996,1.25 2.626,0.2771 4.79,0.9538 4.8088,1.5038 0.019,0.55 -2.3546,1.55717 -5.2745,2.23819 l -5.3089,1.2382 8.4328,-0.471 c 4.6381,-0.25905 8.8906,-0.92874 9.45,-1.4882 z m -28.6536,-3.62139 c -0.3323,-0.3323 -1.1948,-0.3678 -1.9167,-0.079 -0.7977,0.3192 -0.5607,0.5562 0.6042,0.6042 1.0542,0.043 1.6448,-0.193 1.3125,-0.5253 z m 7.2708,-4.3958 c 0,-0.55 -0.4765,-1 -1.059,-1 -0.5824,0 -0.7809,0.45 -0.441,1 0.34,0.55 0.8165,1 1.0591,1 0.2425,0 0.4409,-0.45 0.4409,-1 z m 16.0589,0.011 c 1.4074,-0.01 3.4324,-0.7174 4.5,-1.5807 1.7991,-1.4547 1.4819,-1.5288 -4.3343,-1.0126 -3.4514,0.3063 -7.3858,0.8356 -8.7431,1.1763 -3.798,0.9532 -1.7237,2.7085 2.3957,2.0272 1.9926,-0.3296 4.7743,-0.6042 6.1817,-0.6102 z m -275.55889,-11.992 12,-0.6848 -14,-0.165 c -13.86767,-0.1634 -14.05671,-0.1355 -20.00001,2.9529 -8.75531,4.5497 -8.52812,4.8291 1.24653,1.5333 6.83399,-2.3043 11.38487,-3.1017 20.75348,-3.6364 z m 238.99999,-7.019 c -0.3399,-0.55 -1.3789,-0.9931 -2.309,-0.9847 -1.4573,0.013 -1.4837,0.1493 -0.191,0.9847 1.9584,1.2656 3.2822,1.2656 2.5,0 z m 0,-5.5589 c -7.4926,-1.6907 -8.8437,-1.665 -5,0.095 1.65,0.7556 4.8,1.3479 7,1.3163 3.754,-0.054 3.631,-0.1406 -2,-1.4112 z m 9.6713,-6.0961 c 3.0817,-2.789 2.1137,-3.3525 -5.4213,-3.156 -6.9911,0.1824 -7.0447,0.202 -1.5,0.55 3.1625,0.1984 5.75,0.7797 5.75,1.2918 0,1.5573 -4.7195,2.2314 -10.7681,1.5381 -4.0604,-0.4654 -5.2945,-0.357 -4.2319,0.3717 2.5231,1.7304 14.0711,1.305 16.1713,-0.5956 z m -13.9213,-4.0073 c -0.6875,-0.2774 -1.8125,-0.2774 -2.5,0 -0.6875,0.2774 -0.125,0.5044 1.25,0.5044 1.375,0 1.9375,-0.227 1.25,-0.5044 z m 14.2068,-3.2436 c 1.5734,-0.6154 1.1817,-0.8933 -2,-1.4187 -2.1762,-0.3594 -6.0377,-0.6584 -8.581,-0.6644 -2.5434,-0.01 -6.5511,-0.6908 -8.906,-1.5217 -5.6506,-1.9936 -6.2521,-1.22 -0.7613,0.979 7.6228,3.0527 16.2848,4.176 20.2483,2.6258 z m -1.4568,-6.8578 c 1.5997,-0.4711 -1.4616,-0.9188 -8.5,-1.2429 -6.05,-0.2786 -11.1618,-0.4167 -11.3596,-0.307 -0.1978,0.1098 1.1522,0.6346 3,1.1664 4.0896,1.1769 13.4437,1.3896 16.8596,0.3835 z m 5.2756,-8.1119 c 1.816,-1.816 0.5569,-1.8059 -7.2756,0.058 l -7.5,1.785 6.8423,-0.3761 c 3.7632,-0.2068 7.3332,-0.8671 7.9333,-1.4672 z m -28.2756,-0.1244 c 0,-0.55 -0.4765,-1 -1.059,-1 -0.5824,0 -0.7809,0.45 -0.441,1 0.34,0.55 0.8165,1 1.0591,1 0.2425,0 0.4409,-0.45 0.4409,-1 z m 25.5,-5.4639 c 2.9107,-1.3328 2.9256,-1.3739 0.5,-1.3788 -1.375,0 -4.075,0.6014 -6,1.3427 l -3.5,1.3478 3,0.031 c 1.65,0.017 4.35,-0.5872 6,-1.3427 z m -10.7708,-4.1403 c -0.3323,-0.3323 -1.1948,-0.3678 -1.9167,-0.079 -0.7977,0.3192 -0.5607,0.5562 0.6042,0.6042 1.0542,0.043 1.6448,-0.193 1.3125,-0.5253 z m 15.7208,-4.5012 c 1.4738,-1.3879 -1.5458,-0.9988 -4.95,0.638 l -3,1.4424 3.5,-0.5929 c 1.925,-0.3261 3.9275,-0.9954 4.45,-1.4875 z m -7.3958,-3.0042 c 3.2088,-1.7103 6.624,-3.9823 7.5893,-5.0489 1.7294,-1.911 1.5984,-1.93 -8.9548,-1.3011 -5.8905,0.351 -11.9426,1.0412 -13.4493,1.5337 -1.7863,0.584 0.6139,0.6973 6.8991,0.3257 11.3136,-0.6688 13.4814,0.5537 6.4766,3.6523 -2.4927,1.1026 -4.8024,2.442 -5.1327,2.9763 -0.9866,1.5965 0.4299,1.1356 6.5718,-2.138 z m 4.9458,-9.8282 c 4.3041,-0.4638 4.9564,-0.738 3,-1.261 -2.9591,-0.7911 -9.7379,0.3381 -12.5255,2.0865 -1.7436,1.0937 -1.6237,1.1525 1.0255,0.5029 1.65,-0.4046 5.475,-1.0024 8.5,-1.3284 z m -16.4601,-0.4677 c 1.7966,-1.3138 1.7428,-1.3712 -0.8237,-0.8806 -1.5101,0.2887 -2.9906,0.9211 -3.29,1.4055 -0.8589,1.3898 1.9928,1.0259 4.1137,-0.5249 z m -7.084,-4.5778 c 1.3993,-0.532 2.5441,-1.212 2.5441,-1.511 0,-0.8258 -5.1755,0.5875 -8,2.1845 l -2.5,1.4136 2.7059,-0.5599 c 1.4883,-0.308 3.8508,-0.9952 5.25,-1.5272 z m 17.5441,-1.5233 c 0,-1.4271 2.1733,-2.4934 5.0818,-2.4934 1.2293,0 1.9182,-0.6942 1.9182,-1.9327 0,-1.0629 0.8289,-2.1956 1.8419,-2.5171 2.3631,-0.7501 6.9166,-5.5502 5.265,-5.5502 -0.683,0 -3.7989,2.032 -6.9243,4.5155 -3.1254,2.4836 -6.8076,5.4026 -8.1826,6.4866 -1.375,1.0841 -3.0625,1.9771 -3.75,1.9844 -0.6875,0.01 -1.25,0.3855 -1.25,0.8403 0,0.4547 1.35,0.6286 3,0.3865 1.65,-0.2422 3,-1.0161 3,-1.7199 z m 10.398,0.3711 c 2.1701,-0.9888 4.1782,-3.6217 3.3749,-4.425 -0.1508,-0.1509 -1.7435,1.0386 -3.5393,2.6431 -3.5849,3.2031 -3.5595,3.4786 0.1644,1.7819 z m -14.7067,-7.9687 c 1.7552,-1.5024 5.5802,-3.9255 8.5,-5.3848 2.9198,-1.4593 5.7287,-3.0637 6.2421,-3.5655 1.8433,-1.8017 -0.018,-1.7553 -3.939,0.098 -2.1969,1.0386 -4.824,1.9036 -5.838,1.9223 -1.014,0.019 -2.079,0.9339 -2.3666,2.0339 -0.3673,1.4045 -1.364,2 -3.3474,2 -1.5534,0 -3.1024,0.45 -3.4424,1 -0.3399,0.55 0.083,1 0.941,1 2.3354,0 1.8776,1.9277 -0.691,2.91 -1.2375,0.4733 -3.15,1.8972 -4.25,3.1643 l -2,2.3039 3.5,-2.3754 c 1.925,-1.3064 4.9361,-3.6045 6.6913,-5.1069 z m -14.6913,3.1042 c 2.0098,-0.6437 2.1078,-0.8064 0.5,-0.8301 -1.1,-0.016 -2.9,0.3574 -4,0.8301 -2.5482,1.095 0.081,1.095 3.5,0 z m 14.25,-13.616 c 0.9625,-0.3395 1.75,-1.0148 1.75,-1.5007 0,-1.6357 -2.6746,-0.9007 -4.595,1.2628 -1.3235,1.491 -1.4472,1.9491 -0.405,1.5006 0.825,-0.355 2.2875,-0.9232 3.25,-1.2627 z m 23.8257,-6.0453 c 2.3164,-2.5428 1.0927,-2.4189 -2.0757,0.2101 -0.825,0.6846 -2.4,1.4639 -3.5,1.7319 -1.6095,0.3921 -1.4971,0.5099 0.5757,0.6033 1.6186,0.073 3.4766,-0.8729 5,-2.5453 z m -18.5757,0.6613 c 0.34,-0.55 -0.057,-1 -0.8819,-1 -0.825,0 -1.7781,0.45 -2.1181,1 -0.3399,0.55 0.057,1 0.882,1 0.825,0 1.7781,-0.45 2.118,-1 z m -17.0177,-4.5657 c 1.4959,-1.9611 2.5151,-3.7703 2.2651,-4.0204 -0.2501,-0.25 -1.6519,1.3545 -3.1152,3.5657 -3.2953,4.9795 -2.8023,5.2432 0.8501,0.4547 z m 29.1457,-0.9521 c 1.7203,-0.703 3.4486,-1.7972 3.8407,-2.4315 0.7851,-1.2704 -4.0415,0.5236 -9.0388,3.3596 -2.6506,1.5043 -2.6916,1.6002 -0.4299,1.0064 1.375,-0.361 3.9076,-1.2315 5.628,-1.9345 z m -13.1015,-0.2891 c -0.3079,-0.3079 -1.1148,-7e-4 -1.7931,0.6828 -0.9803,0.9876 -0.8654,1.1024 0.5598,0.5598 0.9862,-0.3756 1.5412,-0.9347 1.2333,-1.2426 z m 9.4735,-3.352 c 2.533,-1.3785 2.8093,-1.7228 1,-1.246 -1.375,0.3624 -4.075,1.516 -6,2.5637 -2.5329,1.3785 -2.8092,1.7228 -1,1.246 1.375,-0.3624 4.075,-1.516 6,-2.5637 z m 13.9695,-0.7674 c 1.6944,-4.0906 0.5439,-7.0737 -2.728,-7.0737 -2.4292,0 -2.4888,0.099 -0.8035,1.331 1.357,0.9922 1.7113,2.2649 1.392,5 -0.5153,4.4136 0.4763,4.7579 2.1395,0.7427 z m -23.9972,-9.6618 c 1.7416,-4.1835 3.0228,-7.7406 2.8472,-7.9045 -0.1757,-0.164 -2.4537,4.2673 -5.0621,9.8472 -2.6085,5.58 -3.8897,9.137 -2.8472,7.9045 1.0426,-1.2324 3.3205,-5.6637 5.0621,-9.8472 z m 29.5205,3.9367 c -2.3801,-3.6326 -2.6159,-2.5338 -0.6809,3.1728 1.5119,4.4587 1.7218,4.6847 2.0108,2.1639 0.1775,-1.548 -0.421,-3.9496 -1.3299,-5.3367 z m -25.5081,0.8423 c -0.013,-1.4572 -0.1493,-1.4836 -0.9847,-0.1909 -1.2656,1.9583 -1.2656,3.2821 0,2.5 0.55,-0.34 0.9931,-1.379 0.9847,-2.3091 z m -29.0703,-3.6909 c 0.03,-0.55 -0.3812,-0.325 -0.9144,0.5 -0.5331,0.825 -0.9446,2.175 -0.9144,3 0.058,1.5838 1.7247,-1.6058 1.8288,-3.5 z m 35.4471,-8.75 c 0.8451,-2.0625 1.1424,-3.75 0.6608,-3.75 -0.4816,0 -1.0228,-0.7644 -1.2027,-1.6987 -0.18,-0.9342 -1.0261,1.3253 -1.8803,5.0212 -1.6764,7.2537 -0.4624,7.4679 2.4222,0.4275 z m -24.4362,-9.631 c 2.7911,-6.8095 5.0666,-12.6595 5.0566,-13 -0.073,-2.4928 -9.4491,17.8183 -11.4857,24.881 -1.7318,6.0053 1.6883,-0.3149 6.4291,-11.881 z m -18.2077,2.1447 c -0.2298,-1.5201 -0.424,-0.5137 -0.4316,2.2363 -0.01,2.75 0.1806,3.9936 0.418,2.7637 0.2373,-1.2299 0.2435,-3.4799 0.014,-5 z m 37.1968,1.7363 c -0.036,-0.9891 -0.3477,-0.8188 -0.9144,0.5 -1.1813,2.749 -1.1813,4.3279 0,2.5 0.5332,-0.825 0.9447,-2.175 0.9144,-3 z m 2,-6 c -0.036,-0.9891 -0.3477,-0.8188 -0.9144,0.5 -1.1813,2.749 -1.1813,4.3279 0,2.5 0.5332,-0.825 0.9447,-2.175 0.9144,-3 z m 5,-1 c -0.036,-0.9891 -0.3477,-0.8188 -0.9144,0.5 -1.1813,2.749 -1.1813,4.3279 0,2.5 0.5332,-0.825 0.9447,-2.175 0.9144,-3 z m -2.1137,-10.5001 c 0,-1.5836 -0.1667,-1.4795 -0.8007,0.5 -0.4403,1.375 -0.8006,3.4 -0.8006,4.5 0,1.5837 0.1667,1.4796 0.8006,-0.5 0.4404,-1.375 0.8007,-3.4 0.8007,-4.5 z m 3.8824,3.3125 c -0.3192,-0.7977 -0.5561,-0.5607 -0.6041,0.6042 -0.043,1.0542 0.1929,1.6448 0.5252,1.3125 0.3323,-0.3323 0.3678,-1.1948 0.079,-1.9167 z m 6.0417,-13.0446 c -0.2226,-1.7973 -0.4093,-0.5679 -0.4149,2.7321 -0.01,3.3 0.1765,4.7706 0.4047,3.268 0.2281,-1.5027 0.2327,-4.2027 0.01,-6.0001 z m -30.0417,-10.9554 c -0.3192,-0.7977 -0.5561,-0.5608 -0.6041,0.6042 -0.043,1.0541 0.1929,1.6448 0.5252,1.3125 0.3323,-0.3323 0.3678,-1.1948 0.079,-1.9167 z m 22.0332,-21.5625 c -0.2291,-1.5125 -0.4166,-0.275 -0.4166,2.75 0,3.025 0.1875,4.2625 0.4166,2.75 0.2291,-1.5125 0.2291,-3.9875 0,-5.5 z m -59.9785,360.05842 c -2.4207,-0.63144 -1.1571,-2.30832 1.7395,-2.30832 3.2217,0 5.6276,1.02134 4.958,2.10478 -0.5695,0.92149 -3.5929,1.01337 -6.6975,0.20354 z m 17.4615,-3.29476 c -3.4857,-0.82553 -4.8618,-1.68433 -4.0307,-2.51546 0.9402,-0.94024 12.8335,0.7827 14.5857,2.11299 1.5288,1.16061 1.1865,1.31654 -2.7543,1.25475 -2.475,-0.0388 -5.9853,-0.42234 -7.8007,-0.85228 z m 45.8007,-9.1498 c -1.375,-0.55521 -8.2533,-1.27033 -15.2852,-1.58918 -7.0319,-0.31884 -13.0005,-0.92792 -13.2635,-1.35351 -0.8269,-1.33795 10.3324,-2.1982 18.8627,-1.45409 8.2026,0.71552 13.8492,2.36995 15.123,4.43098 0.8432,1.36437 -2.0179,1.34637 -5.437,-0.0342 z m -375.00001,-1.64816 c 0,-0.7698 5.23483,-4.21561 6.4043,-4.21561 1.68014,0 0.23205,2.13669 -2.35464,3.47432 -3.34262,1.72854 -4.04966,1.85796 -4.04966,0.74129 z m 398.00001,-3.21561 c 0,-0.55 0.675,-1 1.5,-1 0.825,0 1.5,0.45 1.5,1 0,0.55 -0.675,1 -1.5,1 -0.825,0 -1.5,-0.45 -1.5,-1 z m -396.81251,-8.0625 c 0.24063,-0.72188 1.02813,-1.50937 1.75,-1.75 0.75,-0.25 1.125,0.125 0.875,0.875 -0.24062,0.72187 -1.02812,1.50937 -1.75,1.75 -0.75,0.25 -1.125,-0.125 -0.875,-0.875 z m 395.81251,-18.9375 c 0,-0.55 1.35,-1 3,-1 1.65,0 3,0.45 3,1 0,0.55 -1.35,1 -3,1 -1.65,0 -3,-0.45 -3,-1 z m 4,-6 c 0,-0.55 1.0985,-1 2.441,-1 1.3426,0 2.7191,0.45 3.059,1 0.3606,0.58342 -0.6562,1 -2.4409,1 -1.6825,0 -3.0591,-0.45 -3.0591,-1 z m 3.75,-7.71625 c -1.5125,-0.22913 -2.75,-0.8367 -2.75,-1.35017 0,-1.19707 20.6963,-1.23411 21.4353,-0.0384 0.3043,0.49236 -0.156,1.16736 -1.0228,1.5 -1.6889,0.64807 -13.125,0.5759 -17.6625,-0.11147 z m 15.25,-13.28375 c 0,-1.19837 3.7113,-1.19837 6.5,0 1.549,0.66561 1.0416,0.87528 -2.25,0.92971 -2.3375,0.0387 -4.25,-0.37971 -4.25,-0.92971 z m 6,-22.9492 -6.5,-0.60399 4.8441,-0.85105 c 5.9719,-1.04922 18.3981,-0.25365 19.9275,1.27583 1.2328,1.23275 -6.154,1.3052 -18.2716,0.17921 z m -25.1875,-4.73392 c 0.7219,-0.28887 1.5844,-0.25335 1.9167,0.0789 0.3323,0.33229 -0.2583,0.56864 -1.3125,0.52522 -1.1649,-0.048 -1.4019,-0.28494 -0.6042,-0.60416 z m 8.9375,0.0208 c 0.6875,-0.27741 1.8125,-0.27741 2.5,0 0.6875,0.27741 0.125,0.50439 -1.25,0.50439 -1.375,0 -1.9375,-0.22698 -1.25,-0.50439 z m 21.25,-2.33769 c 0,-0.55 1.3235,-1 2.941,-1 1.6176,0 3.2191,0.45 3.559,1 0.3678,0.59512 -0.8229,1 -2.9409,1 -1.9575,0 -3.5591,-0.45 -3.5591,-1 z m 9,0 c 0,-0.55 0.9,-1 2,-1 1.1,0 2,0.45 2,1 0,0.55 -0.9,1 -2,1 -1.1,0 -2,-0.45 -2,-1 z m -27,-2.88337 c 0,-1.06967 3.4981,-2.08435 7.25,-2.10298 2.9975,-0.0149 3.6966,1.40914 1.1683,2.37936 -2.4034,0.92224 -8.4183,0.72477 -8.4183,-0.27638 z m -413.60874,-5.33121 c -5.77278,-11.39203 -8.09882,-19.74031 -11.36385,-40.7854 -0.63997,-4.125 -2.03295,-11.6547 -3.0955,-16.7326 -3.01608,-14.4137 -2.74811,-16.7605 2.90218,-25.4159 2.65876,-4.0728 7.96709,-11.5317 11.79629,-16.5753 3.8292,-5.0437 8.02694,-11.3316 9.32831,-13.9733 1.30137,-2.6416 3.56196,-6.6029 5.02354,-8.8029 3.1436,-4.7319 4.37817,-7.8461 6.44135,-16.2486 0.84386,-3.4367 2.50568,-8.1617 3.69292,-10.5 3.2225,-6.3467 14.24402,-21.8575 23.11443,-32.5293 4.31449,-5.1906 9.00661,-11.7516 10.42694,-14.5798 1.56563,-3.1177 6.1771,-8.6859 11.71227,-14.1424 9.85431,-9.7141 15.82659,-13.7033 17.70439,-11.8255 0.81355,0.8136 -0.85874,2.5663 -6.25897,6.56 -8.30757,6.1437 -16.9288,15.5919 -21.68545,23.7656 -2.78009,4.7771 -8.86381,13.2339 -20.76168,28.8602 -3.90186,5.1245 -10.61394,18.0068 -12.83816,24.6398 -0.92215,2.75 -2.1107,8.8195 -2.64123,13.4877 -0.53053,4.6683 -1.3976,8.9208 -1.92682,9.45 -0.6163,0.6163 -0.96222,0.2008 -0.96222,-1.1559 0,-2.7329 -0.98642,-5.2818 -2.04404,-5.2818 -0.45653,0 -3.34939,4.8375 -6.42858,10.75 -3.07919,5.9125 -9.37577,15.597 -13.99241,21.5212 -4.61663,5.9241 -8.92166,12.3704 -9.56673,14.325 -2.4808,7.5169 1.96313,20.9754 8.59069,26.017 8.92879,6.7923 12.49483,10.80487 13.1271,14.77099 0.48669,3.05294 0.32223,3.78521 -0.76846,3.42165 -0.76321,-0.25441 -1.80681,-1.92404 -2.3191,-3.7103 -0.92782,-3.23513 -3.57522,-5.66784 -11.01061,-10.11774 l -3.91214,-2.3414 0.61778,9.93182 c 0.74655,12.00209 4.35824,26.74182 8.58968,35.05546 3.39989,6.67988 3.60134,7.3763 2.13366,7.3763 -0.54073,0 -2.17225,-2.34656 -3.62558,-5.21458 z m 442.10874,3.21458 c 0.34,-0.55 2.1665,-1 4.0591,-1 1.8925,0 3.4409,0.45 3.4409,1 0,0.55 -1.8265,1 -4.059,1 -2.4513,0 -3.8142,-0.39607 -3.441,-1 z m -28.5,-9 c 0,-0.55 1.575,-1 3.5,-1 1.925,0 3.5,0.45 3.5,1 0,0.55 -1.575,1 -3.5,1 -1.925,0 -3.5,-0.45 -3.5,-1 z m -23.4268,-3.89542 c -1.7881,-0.70047 -1.8002,-0.80346 -0.1683,-1.42971 2.5666,-0.98489 20.5951,-0.82686 20.5951,0.18053 0,0.47046 -3.0375,1.14226 -6.75,1.49289 -8.2894,0.78288 -11.1881,0.73123 -13.6768,-0.24371 z m 58.0935,-0.77125 c -1.6175,-1.6175 -0.3264,-2.33333 4.2083,-2.33333 6.7574,0 11.6583,1.04649 9.9557,2.12582 -1.5765,0.9994 -13.2018,1.16972 -14.164,0.20751 z m -54.1387,-4.28803 c -0.4005,-0.6481 -0.4534,-1.45315 -0.1176,-1.78901 0.8865,-0.88645 10.2846,-0.89174 11.1717,-0.006 1.1723,1.17027 0.2668,1.56851 -5.2221,2.29663 -3.4933,0.46341 -5.3335,0.30523 -5.832,-0.50133 z m 20.472,-1.02625 c 0,-1.28869 4.5585,-2.40999 6.05,-1.48819 0.8558,0.52893 0.8047,0.94652 -0.1932,1.57883 -1.8562,1.17618 -5.8568,1.11427 -5.8568,-0.0906 z m 47,-1.98108 c -2.0839,-0.63575 -2.2208,-0.88195 -0.8227,-1.4794 2.3258,-0.99384 6.0822,-0.31345 6.5778,1.19143 0.4525,1.37416 -1.8216,1.48795 -5.7551,0.28797 z m -57.7562,-2.70233 c -0.6909,-0.27855 -1.0019,-0.91803 -0.691,-1.42105 0.7259,-1.17445 9.1537,-1.19858 9.877,-0.0283 0.9745,1.57679 -6.1009,2.69312 -9.186,1.44933 z m 17.7562,-1.31659 c 0,-1.19796 4.8279,-2.52452 5.7677,-1.58477 0.8689,0.8689 -1.7487,2.53055 -4.0177,2.55041 -0.9625,0.008 -1.75,-0.42612 -1.75,-0.96564 z m 39.4957,-3.02611 c -0.7461,-1.20716 1.7022,-2.29497 4.1131,-1.82751 0.949,0.18401 1.9128,0.89707 2.1417,1.58457 0.5078,1.52495 -5.3225,1.7514 -6.2548,0.24294 z m -60.7304,-2.08345 c 0.8575,-0.90816 4.5637,-1.43299 11.5,-1.62849 12.7623,-0.35969 10.1996,1.32811 -3.5027,2.30688 -7.7217,0.55158 -9.0521,0.43873 -7.9973,-0.67839 z m -398.31911,-6.3446 c -0.35444,-1.88932 -0.33163,-3.94125 0.0507,-4.55985 1.03736,-1.67849 3.43311,1.94134 3.47131,5.24496 0.0471,4.07386 -2.73058,3.53353 -3.522,-0.68511 z m 315.56481,0.68511 c 0.018,-4.56252 1.1945,-10.24998 2.1199,-10.24998 0.9839,0 1.1905,8.99886 0.2621,11.41819 -0.97,2.52785 -2.394,1.82949 -2.382,-1.16821 z m 88.5426,-0.15228 c -1.8027,-0.70546 -1.7658,-0.81003 0.5,-1.41606 3.5215,-0.9419 7.9464,-0.82958 7.9464,0.20171 0,0.48585 -1.0125,1.15471 -2.25,1.48634 -2.7658,0.74123 -3.7136,0.69963 -6.1964,-0.27199 z m 17.4464,-0.9074 c 0,-0.53699 0.7126,-1.24979 1.5836,-1.58401 0.9739,-0.37373 1.4311,-0.15024 1.1875,0.58051 -0.4983,1.49484 -2.7711,2.31789 -2.7711,1.0035 z m 31,-4.19032 c 1.9745,-1.27601 7,-1.27601 7,0 0,0.55 -1.9125,0.99311 -4.25,0.98469 -3.1124,-0.0112 -3.8485,-0.27478 -2.75,-0.98469 z m -431.25,-6.68938 c -3.52264,-0.9205 -1.61663,-2.3106 3.16821,-2.3106 5.54857,0 8.33556,0.7803 7.51703,2.1048 -0.56146,0.9084 -7.48622,1.0418 -10.68524,0.2058 z m 382.75,-0.3106 c 0.34,-0.55 2.1665,-1 4.0591,-1 1.8925,0 3.4409,0.45 3.4409,1 0,0.55 -1.8265,1 -4.059,1 -2.4513,0 -3.8142,-0.3961 -3.441,-1 z m -76.268,-5 c 0,-1.925 0.2058,-2.7125 0.4574,-1.75 0.2515,0.9625 0.2515,2.5375 0,3.5 -0.2516,0.9625 -0.4574,0.175 -0.4574,-1.75 z m 115.907,2.107 c -0.9387,-0.5947 -0.1778,-1.0004 2.4518,-1.3074 4.6539,-0.5433 8.5799,0.1152 7.8386,1.3147 -0.7005,1.1334 -8.4988,1.1279 -10.2904,-0.01 z m -22.139,-5.9904 c 0,-1.3882 3.8912,-2.0882 11.691,-2.103 6.8942,-0.013 10.049,1.1047 6.7215,2.3816 -2.4716,0.9484 -18.4125,0.7072 -18.4125,-0.2786 z m -38.3907,-2.9398 c -0.8858,-1.4334 0.4617,-2.0878 5.8078,-2.8205 2.9957,-0.4106 4.5829,-0.2552 4.5829,0.4487 0,1.5015 -1.0814,2.0244 -5.7197,2.7661 -2.4132,0.3859 -4.2865,0.2278 -4.671,-0.3943 z m -55.9426,-6.8435 c -1.0469,-1.0469 -0.779,-5.3333 0.3333,-5.3333 0.55,0 1,1.35 1,3 0,3.1068 -0.2035,3.4631 -1.3333,2.3333 z m -0.668,-6.5833 c -8e-4,-0.1375 -0.6752,-4.075 -1.4987,-8.75 -0.8235,-4.675 -1.4978,-9.2875 -1.4986,-10.25 0,-2.5603 2.8795,-2.14 3.4282,0.5 0.9156,4.4047 1.2255,18.75 0.4051,18.75 -0.4591,0 -0.8353,-0.1125 -0.836,-0.25 z m -10.3028,-4.9809 c -0.5288,-3.9423 -0.2633,-5.6719 0.7193,-4.6858 0.9321,0.9354 1.6166,8.9167 0.7648,8.9167 -0.5041,0 -1.172,-1.9039 -1.4841,-4.2309 z m 65.3041,3.266 c 0,-1.0517 3.2245,-3.0351 4.9343,-3.0351 1.9624,0 1.093,1.6665 -1.4813,2.8394 -3.0931,1.4094 -3.453,1.4298 -3.453,0.1957 z m -359.75,-3.0242 c -3.41241,-2.0806 -4.26975,-4.0109 -1.78139,-4.0109 0.89459,0 1.24364,-0.5863 0.89301,-1.5 -0.85032,-2.2159 -0.0565,-1.9119 6.85464,2.6252 6.23859,4.0955 6.2568,4.1211 2.53374,3.5628 -2.06566,-0.3097 -3.75,-0.1414 -3.75,0.3748 0,1.399 -1.14692,1.145 -4.75,-1.0519 z m 372.3895,-11.7048 c -1.1262,-1.1262 -0.6859,-2.3061 0.8605,-2.3061 0.825,0 1.5,0.4234 1.5,0.9409 0,1.261 -1.5615,2.1641 -2.3605,1.3652 z m -284.63949,-2.7336 c 0,-1.6686 4.64818,-5.5725 6.63486,-5.5725 2.09484,0 1.64009,1.3624 -1.43958,4.3129 -3.08539,2.956 -5.19528,3.4675 -5.19528,1.2596 z m 298.01539,-1.8225 c -0.01,-1.5125 0.4346,-2.75 0.9846,-2.75 1.2645,0 1.2645,2.0434 0,4 -0.7553,1.1688 -0.9727,0.8929 -0.9846,-1.25 z m -273.81539,-2.95 c -1.3886,-1.3886 -1.61776,-4.8 -0.32244,-4.8 0.48265,0 1.4875,0.7349 2.23299,1.6332 1.14372,1.3781 2.72486,1.536 10.12244,1.0109 4.82186,-0.3423 8.76701,-0.3793 8.76701,-0.082 0,2.7679 -18.30093,4.7371 -20.8,2.238 z m 252.79999,-5.4398 c 0,-0.7758 3.2027,-3.284 4.25,-3.3284 1.4365,-0.061 0.7388,2.7585 -0.8317,3.3612 -2.0473,0.7856 -3.4183,0.7724 -3.4183,-0.033 z m -256.82027,-3.0246 c -0.54028,-1.0096 -1.31244,-4.0372 -1.71592,-6.728 -1.00625,-6.7108 0.84875,-5.2573 2.45594,1.9243 1.30321,5.8234 0.96847,7.9963 -0.74002,4.8037 z m 10.38504,-0.2309 c -0.74238,-1.2011 1.84074,-2.1047 6.01703,-2.1047 3.55363,0 4.58164,1.3395 1.83642,2.393 -2.36945,0.9092 -7.22347,0.7311 -7.85345,-0.2883 z m -25.56476,-10.0266 c 0,-0.5071 2.2463,-3.3196 4.99177,-6.25 6.07477,-6.4841 6.89042,-4.248 0.92324,2.5311 -3.90994,4.4419 -5.91501,5.7025 -5.91501,3.7189 z m 120.98059,-10.21 c -3.0143,-1.0807 -8.0804,-2.5056 -11.2579,-3.1665 -6.4085,-1.3329 -7.709,-3.3365 -1.9229,-2.9625 4.6561,0.301 16.0837,3.7183 18.6017,5.5628 3.1995,2.3435 0.3628,2.6398 -5.4209,0.5662 z m -27.8587,0.2284 c -1.5182,-0.9616 -0.697,-3.0998 1.1871,-3.091 2.5983,0.012 8.691,2.1444 8.691,3.0415 0,1.1916 -8.0116,1.2317 -9.8781,0.05 z m -75.964,-4.0965 c 0,-1.375 0.22698,-1.9375 0.50439,-1.25 0.27741,0.6875 0.27741,1.8125 0,2.5 -0.27741,0.6875 -0.50439,0.125 -0.50439,-1.25 z m 0.30633,-15.3821 c 1.11138,-7.7741 2.68728,-10.2126 2.02371,-3.1314 -0.30855,3.2926 -1.04714,6.4426 -1.64132,7 -0.77003,0.7224 -0.87986,-0.3888 -0.38239,-3.8686 z m 57.07837,-10.5356 c -1.7391,-3.363 -2.0081,-6.0823 -0.6016,-6.0823 1.1991,0 2.0023,1.3155 3.0645,5.019 1.1558,4.03 -0.5483,4.7657 -2.4629,1.0633 z m -52.54259,-6.0233 c 0,-1.1325 0.45,-2.059 1,-2.059 0.55,0 1,0.6484 1,1.4409 0,0.7926 -0.45,1.7191 -1,2.0591 -0.55,0.3399 -1,-0.3086 -1,-1.441 z m 3,-9.5686 c 0,-2.0034 3.97732,-8.8465 4.71373,-8.11 0.78666,0.7866 -1.68866,7.3539 -3.26488,8.662 -1.1715,0.9723 -1.44885,0.8666 -1.44885,-0.552 z m 161.63949,-8.1843 c -1.0081,-1.0081 -0.7452,-14.8978 0.3358,-17.741 0.9753,-2.5654 3.379,-3.419 4.5035,-1.5994 0.3283,0.5311 -0.3201,2.7632 -1.4409,4.9601 -1.1208,2.197 -2.0276,4.7999 -2.0151,5.7843 0.014,1.135 0.6089,0.6008 1.6249,-1.4601 0.8812,-1.7875 2.2209,-3.25 2.9772,-3.25 1.9027,0 1.7514,0.9364 -1.1894,7.36 -2.6368,5.7595 -3.6841,7.058 -4.796,5.9461 z m -152.63949,-8.1881 c 0,-0.55 0.45,-1.2781 1,-1.618 0.55,-0.34 1,-0.1681 1,0.3819 0,0.55 -0.45,1.2781 -1,1.6181 -0.55,0.3399 -1,0.168 -1,-0.382 z m 166.00139,-5.868 c 8e-4,-0.9625 0.6727,-5.575 1.4931,-10.25 1.3814,-7.8715 3.0017,-11.0001 5.6967,-11.0001 1.443,0 0.8633,8.0884 -0.6912,9.6429 -0.825,0.825 -1.5,2.3588 -1.5,3.4083 0,2.6376 -3.0193,9.9489 -4.1085,9.9489 -0.4903,0 -0.8908,-0.7875 -0.8901,-1.75 z m -152.00139,-16.8886 c 0,-1.2868 4.82559,-5.8692 5.48563,-5.2092 0.27143,0.2715 -0.8518,1.7824 -2.49606,3.3577 -1.64426,1.5753 -2.98957,2.4085 -2.98957,1.8515 z m 155.19999,-6.5615 c -0.66,-0.66 -1.1988,-3.2475 -1.1974,-5.75 10e-4,-2.5025 -0.7371,-7.5989 -1.6413,-11.3253 -0.9042,-3.7264 -1.3853,-7.034 -1.0692,-7.3501 2.0147,-2.0147 7.1817,8.486 6.3148,12.8333 -0.297,1.4893 0.1424,4.3411 0.9765,6.3374 1.1708,2.8021 1.2492,3.9515 0.3441,5.0421 -1.4321,1.7256 -2.1723,1.7678 -3.7275,0.2126 z m -149.19999,-5.1887 c 0,-0.8862 0.43589,-1.6113 0.96859,-1.6113 0.5328,0 0.7304,-0.6208 0.4392,-1.3796 -0.2984,-0.7776 0.6972,-2.2955 2.2814,-3.4786 1.546,-1.1545 3.7108,-2.9533 4.8108,-3.9975 1.1,-1.0442 3.125,-2.1167 4.5,-2.3834 1.375,-0.2667 4.8625,-1.4404 7.75,-2.6083 3.8193,-1.5447 5.25,-1.7752 5.25,-0.8458 0,1.3744 -9.0757,6.9823 -18,11.1222 -5.2196,2.4214 -5.3343,2.552 -2.25,2.5612 1.7875,0.01 3.25,0.4333 3.25,0.9508 0,1.3071 -0.944,1.7703 -5.2576,2.5795 -3.0653,0.5751 -3.74239,0.4106 -3.74239,-0.9092 z m 15.20779,-16.7346 c 0.2059,-0.6179 2.374,-2.1929 4.8179,-3.5 2.9595,-1.583 3.7807,-2.3878 2.4588,-2.41 -1.8195,-0.031 -1.7767,-0.2055 0.5155,-2.1059 1.375,-1.14 4.2461,-3.6 6.3803,-5.4668 2.1341,-1.8667 4.2716,-3.394 4.75,-3.394 1.2709,0 1.0621,2.4076 -0.3295,3.7993 -0.6596,0.6596 -1.6721,2.6621 -2.25,4.45 -0.8133,2.5161 -2.4067,3.9788 -7.0508,6.4726 -6.1132,3.2827 -9.966,4.1761 -9.2922,2.1548 z m -6.2078,-50.8767 c 0,-0.55 0.45,-1 1,-1 0.55,0 1,0.45 1,1 0,0.55 -0.45,1 -1,1 -0.55,0 -1,-0.45 -1,-1 z m 6.2209,-5.25 c 2.2134,-3.4 15.5858,-9.8872 21.3707,-10.3674 4.7457,-0.3938 4.4648,-0.1914 -8.471,6.105 -7.3587,3.5818 -13.6011,6.5124 -13.872,6.5124 -0.2709,0 0.1666,-1.0125 0.9723,-2.25 z"
         style="fill:#000000" />
    </g>
  </g>
  <g
     inkscape:groupmode="layer"
     id="layer2"
     inkscape:label="Layer 2"
     transform="translate(1304.2662,873.89718)" />
</svg>
